<svg width="88.000000" height="88.000000" viewBox="0 0 88 88" fill="none" xmlns="http://www.w3.org/2000/svg" xmlns:xlink="http://www.w3.org/1999/xlink">
	<desc>
			Created with Pixso.
	</desc>
	<defs>
		<filter id="filter_1_581_dd" x="0.000000" y="0.000000" width="88.000000" height="88.000000" filterUnits="userSpaceOnUse" color-interpolation-filters="sRGB">
			<feFlood flood-opacity="0" result="BackgroundImageFix"/>
			<feColorMatrix in="SourceAlpha" type="matrix" values="0 0 0 0 0 0 0 0 0 0 0 0 0 0 0 0 0 0 127 0" result="hardAlpha"/>
			<feOffset dx="0" dy="4"/>
			<feGaussianBlur stdDeviation="1.33333"/>
			<feComposite in2="hardAlpha" operator="out" k2="-1" k3="1"/>
			<feColorMatrix type="matrix" values="0 0 0 0 0 0 0 0 0 0 0 0 0 0 0 0 0 0 0.25 0"/>
			<feBlend mode="normal" in2="BackgroundImageFix" result="effect_dropShadow_1"/>
			<feBlend mode="normal" in="SourceGraphic" in2="effect_dropShadow_1" result="shape"/>
		</filter>
		<clipPath id="clip1_581">
			<rect id="adv-02 1" width="80.000000" height="80.000000" transform="translate(4.000000 0.000000)" fill="white" fill-opacity="0"/>
		</clipPath>
	</defs>
	<g filter="url(#filter_1_581_dd)">
		<rect id="adv-02 1" width="80.000000" height="80.000000" transform="translate(4.000000 0.000000)" fill="#FFFFFF" fill-opacity="0"/>
		<g clip-path="url(#clip1_581)">
			<path id="Vector" d="M71.9 80.59L77.4 80.59C79.6 80.59 81.5 78.8 81.5 76.5L81.5 50.3C81.5 49.09 81 48 80.1 47.3L80.1 44.8C80.1 42.59 78.3 40.7 76 40.7L76 12.7C77.6 12.2 78.8 10.59 78.8 8.89C78.8 8.8 78.8 8.69 78.8 8.59L77.4 1.69C77.3 1.09 76.69 0.69 76.1 0.69L73.3 0.69C72.7 0.69 72.19 1.09 72 1.69L70.6 8.59C70.6 8.69 70.6 8.8 70.6 8.89C70.6 10.7 71.8 12.2 73.4 12.7L73.4 40.7L73.3 40.7C71.1 40.7 69.19 42.5 69.19 44.8L69.19 47.3C68.4 48 67.8 49.09 67.8 50.3L67.8 76.59C67.8 78.8 69.7 80.59 71.9 80.59Z" fill="#005AAA" fill-opacity="1.000000" fill-rule="nonzero"/>
			<path id="Vector" d="M78.9 76.5C78.9 77.3 78.19 78 77.4 78L71.9 78C71.1 78 70.4 77.3 70.4 76.5L70.4 50.3C70.4 49.5 71.1 48.8 71.9 48.8L77.4 48.8C78.19 48.8 78.9 49.5 78.9 50.3L78.9 76.5Z" fill="#FFD66B" fill-opacity="1.000000" fill-rule="nonzero"/>
			<path id="Vector" d="M71.8 44.7C71.8 43.89 72.5 43.2 73.3 43.2L76.1 43.2C76.9 43.2 77.6 43.89 77.6 44.7L77.6 46.2L77.5 46.2L72 46.2L71.9 46.2L71.9 44.7L71.8 44.7Z" fill="#005AAA" fill-opacity="1.000000" fill-rule="nonzero"/>
			<path id="Vector" d="M74.69 51.7C74 51.7 73.4 52.3 73.4 53L73.4 73.69C73.4 74.39 74 75 74.69 75C75.4 75 76 74.39 76 73.69L76 53C76 52.3 75.4 51.7 74.69 51.7Z" fill="#005AAA" fill-opacity="1.000000" fill-rule="nonzero"/>
			<path id="Vector" d="M47.5 3L15.5 3C12.5 3 10.1 5.39 10.1 8.39L10.1 71.5C10.1 74.5 12.5 76.89 15.5 76.89L47.4 76.89C50.4 76.89 52.8 74.5 52.8 71.5L52.8 8.5C52.9 5.39 50.5 3 47.5 3Z" fill="#3D8AFF" fill-opacity="1.000000" fill-rule="nonzero"/>
			<path id="Vector" d="M10.1 15.8L52.9 15.8L52.9 58.6L10.1 58.6L10.1 15.8Z" fill="#FFD66B" fill-opacity="1.000000" fill-rule="evenodd"/>
			<path id="Vector" d="M46.9 0L15 0C10.3 0 6.5 3.8 6.5 8.5L6.5 15.8L6.5 58.6L6.5 71.6C6.5 76.3 10.3 80.1 15 80.1L46.9 80.1C51.6 80.1 55.4 76.3 55.4 71.6L55.4 58.6L55.4 15.8L55.4 8.5C55.3 3.8 51.5 0 46.9 0ZM15 6L46.9 6C48.2 6 49.3 7.1 49.3 8.39L49.3 12.7L12.5 12.7L12.5 8.5C12.5 7.1 13.6 6 15 6ZM49.3 55.6L12.5 55.6L12.5 18.79L49.3 18.79L49.3 55.6ZM46.9 74L15 74C13.7 74 12.6 72.89 12.6 71.6L12.6 61.6L49.4 61.6L49.4 71.6C49.3 72.89 48.2 74 46.9 74Z" fill="#005AAA" fill-opacity="1.000000" fill-rule="nonzero"/>
			<path id="Vector" d="M33.1 64.69L30.8 64.69C29.1 64.69 27.8 66 27.8 67.69C27.8 69.39 29.1 70.69 30.8 70.69L33.1 70.69C34.8 70.69 36.1 69.39 36.1 67.69C36.2 66 34.8 64.69 33.1 64.69Z" fill="#FFD66B" fill-opacity="1.000000" fill-rule="nonzero"/>
		</g>
	</g>
</svg>
