<svg width="49.000000" height="40.000000" viewBox="0 0 49 40" fill="none" xmlns="http://www.w3.org/2000/svg" xmlns:xlink="http://www.w3.org/1999/xlink">
	<desc>
			Created with Pixso.
	</desc>
	<defs>
		<clipPath id="clip1_668">
			<rect id="android-logomark 1" width="49.382713" height="40.000000" transform="translate(-0.691406 -0.682129)" fill="white" fill-opacity="0"/>
		</clipPath>
	</defs>
	<rect id="android-logomark 1" width="49.382713" height="40.000000" transform="translate(-0.691406 -0.682129)" fill="#FFFFFF" fill-opacity="0"/>
	<g clip-path="url(#clip1_668)">
		<path id="Vector" d="M4.81 33.48C3.64 33.48 2.86 34.4 2.86 35.57C2.86 36.75 3.64 37.67 4.81 37.67C5.98 37.67 6.76 36.75 6.76 35.57C6.75 34.4 5.97 33.48 4.81 33.48ZM4.55 32.18C5.49 32.18 6.27 32.66 6.64 33.18L6.64 32.31L8.09 32.31L8.09 38.85L6.97 38.85C6.89 38.85 6.8 38.81 6.74 38.75C6.68 38.69 6.65 38.61 6.64 38.52L6.64 37.97C6.27 38.5 5.5 38.98 4.55 38.98C2.76 38.98 1.4 37.45 1.4 35.59C1.4 33.72 2.75 32.18 4.55 32.18ZM9.72 32.31L11.16 32.31L11.16 33.2C11.56 32.54 12.3 32.18 13.15 32.18C14.67 32.18 15.65 33.25 15.65 34.91L15.65 38.85L14.55 38.85C14.46 38.85 14.38 38.81 14.31 38.75C14.25 38.69 14.22 38.61 14.22 38.52L14.22 35.15C14.22 34.11 13.69 33.49 12.85 33.49C11.9 33.49 11.16 34.23 11.16 35.63L11.16 38.85L10.06 38.85C9.97 38.85 9.89 38.81 9.83 38.75C9.77 38.69 9.73 38.61 9.73 38.52L9.72 32.31ZM20.19 33.48C19.02 33.48 18.23 34.4 18.23 35.57C18.23 36.75 19.02 37.67 20.19 37.67C21.35 37.67 22.14 36.75 22.14 35.57C22.14 34.4 21.35 33.48 20.19 33.48ZM19.92 32.18C20.86 32.18 21.65 32.66 22.02 33.18L22.02 29.04L23.46 29.04L23.46 38.85L22.36 38.85C22.27 38.85 22.19 38.81 22.13 38.75C22.07 38.69 22.03 38.61 22.03 38.52L22.03 37.97C21.66 38.5 20.89 38.98 19.94 38.98C18.15 38.98 16.78 37.45 16.78 35.59C16.78 33.72 18.14 32.18 19.92 32.18ZM25.1 32.31L26.54 32.31L26.54 33.48C26.66 33.12 26.9 32.81 27.21 32.59C27.51 32.37 27.88 32.25 28.26 32.25C28.45 32.24 28.64 32.26 28.82 32.3L28.82 33.77C28.59 33.7 28.34 33.66 28.1 33.65C27.28 33.65 26.53 34.35 26.53 35.65L26.53 38.84L25.42 38.84C25.34 38.84 25.25 38.8 25.19 38.74C25.13 38.68 25.1 38.6 25.1 38.51L25.1 32.31ZM32.69 37.64C33.84 37.64 34.66 36.73 34.66 35.57C34.66 34.41 33.85 33.51 32.69 33.51C31.52 33.51 30.72 34.42 30.72 35.57C30.73 36.74 31.52 37.64 32.69 37.64ZM32.69 38.98C32.02 38.97 31.37 38.77 30.81 38.39C30.25 38.02 29.82 37.48 29.57 36.86C29.32 36.24 29.25 35.56 29.39 34.9C29.52 34.24 29.85 33.64 30.33 33.16C30.8 32.69 31.41 32.37 32.07 32.24C32.73 32.11 33.41 32.18 34.03 32.44C34.65 32.7 35.18 33.14 35.55 33.7C35.92 34.26 36.12 34.91 36.12 35.59C36.12 36.03 36.03 36.48 35.86 36.89C35.69 37.31 35.44 37.69 35.12 38C34.8 38.32 34.42 38.57 34 38.73C33.59 38.9 33.14 38.99 32.69 38.98ZM37.29 32.31L38.73 32.31L38.73 38.85L37.62 38.85C37.54 38.85 37.45 38.81 37.39 38.75C37.33 38.69 37.3 38.61 37.3 38.52L37.29 32.31ZM38.01 30.88C37.75 30.88 37.5 30.78 37.32 30.59C37.14 30.41 37.04 30.17 37.03 29.91C37.04 29.66 37.14 29.42 37.33 29.24C37.51 29.06 37.75 28.96 38.01 28.96C38.26 28.96 38.5 29.06 38.68 29.24C38.87 29.42 38.97 29.67 38.97 29.92C38.97 30.18 38.87 30.42 38.68 30.6C38.5 30.78 38.26 30.88 38.01 30.88ZM43.32 33.48C42.15 33.48 41.37 34.4 41.37 35.57C41.37 36.75 42.15 37.67 43.32 37.67C44.49 37.67 45.27 36.75 45.27 35.57C45.25 34.4 44.49 33.48 43.32 33.48ZM43.06 32.18C44 32.18 44.78 32.66 45.15 33.18L45.15 29.04L46.59 29.04L46.59 38.85L45.49 38.85C45.4 38.85 45.32 38.81 45.26 38.75C45.2 38.69 45.16 38.61 45.16 38.52L45.16 37.97C44.79 38.5 44.02 38.98 43.07 38.98C41.28 38.98 39.92 37.45 39.92 35.59C39.92 33.72 41.27 32.18 43.06 32.18Z" fill="#000000" fill-opacity="1.000000" fill-rule="nonzero"/>
		<path id="Vector" d="M35.07 7.1L38.84 0.59C38.94 0.41 38.96 0.2 38.91 0C38.85 -0.2 38.72 -0.37 38.55 -0.47C38.37 -0.57 38.16 -0.6 37.96 -0.55C37.76 -0.5 37.59 -0.37 37.48 -0.2L33.67 6.4C30.63 5.03 27.34 4.32 24.01 4.32C20.67 4.32 17.38 5.03 14.34 6.4L10.53 -0.2C10.42 -0.37 10.25 -0.5 10.05 -0.55C9.85 -0.6 9.64 -0.57 9.47 -0.47C9.29 -0.37 9.16 -0.2 9.1 0C9.05 0.2 9.08 0.41 9.18 0.59L12.94 7.1C6.45 10.62 2.04 17.15 1.4 24.87L46.57 24.87C45.93 17.15 41.51 10.62 35.07 7.1ZM13.6 18.43C13.22 18.43 12.86 18.32 12.55 18.12C12.24 17.91 12 17.62 11.86 17.27C11.72 16.93 11.68 16.55 11.76 16.19C11.83 15.82 12.01 15.49 12.27 15.23C12.53 14.97 12.87 14.79 13.23 14.71C13.59 14.64 13.97 14.68 14.31 14.82C14.66 14.96 14.95 15.2 15.16 15.51C15.36 15.82 15.47 16.18 15.47 16.55C15.47 17.05 15.28 17.53 14.92 17.88C14.57 18.23 14.09 18.43 13.6 18.43ZM34.39 18.43C34.02 18.43 33.66 18.32 33.35 18.12C33.04 17.91 32.8 17.62 32.66 17.27C32.52 16.93 32.48 16.55 32.55 16.19C32.63 15.82 32.8 15.49 33.07 15.23C33.33 14.97 33.66 14.79 34.03 14.71C34.39 14.64 34.77 14.68 35.11 14.82C35.46 14.96 35.75 15.2 35.95 15.51C36.16 15.82 36.27 16.18 36.27 16.55C36.27 17.05 36.07 17.53 35.72 17.88C35.37 18.23 34.89 18.43 34.39 18.43Z" fill="#3DDC84" fill-opacity="1.000000" fill-rule="nonzero"/>
	</g>
</svg>
