<svg width="33.000000" height="40.000000" viewBox="0 0 33 40" fill="none" xmlns="http://www.w3.org/2000/svg" xmlns:xlink="http://www.w3.org/1999/xlink">
	<desc>
			Created with Pixso.
	</desc>
	<defs>
		<clipPath id="clip1_654">
			<rect id="apple-black 1" width="32.576000" height="40.000000" transform="translate(0.000000 -0.707520)" fill="white" fill-opacity="0"/>
		</clipPath>
	</defs>
	<rect id="apple-black 1" width="32.576000" height="40.000000" transform="translate(0.000000 -0.707520)" fill="#FFFFFF" fill-opacity="0"/>
	<g clip-path="url(#clip1_654)">
		<path id="Vector" d="M27.2 20.54C27.25 26.59 32.51 28.61 32.57 28.63C32.52 28.77 31.73 31.5 29.8 34.32C28.13 36.76 26.4 39.18 23.68 39.24C21 39.28 20.14 37.65 17.07 37.65C14.01 37.65 13.06 39.19 10.52 39.28C7.89 39.38 5.89 36.65 4.2 34.22C0.77 29.26 -1.86 20.19 1.67 14.07C3.42 11.03 6.55 9.1 9.95 9.06C12.53 9.01 14.97 10.79 16.55 10.79C18.13 10.79 21.09 8.64 24.21 8.96C25.51 9.01 29.17 9.49 31.52 12.93C31.33 13.04 27.15 15.48 27.2 20.54ZM22.16 5.67C23.56 3.98 24.5 1.63 24.25 -0.71C22.23 -0.63 19.8 0.63 18.35 2.32C17.06 3.82 15.92 6.21 16.23 8.51C18.48 8.68 20.77 7.37 22.16 5.67Z" fill="#000000" fill-opacity="1.000000" fill-rule="nonzero"/>
	</g>
</svg>
