<svg width="35.000000" height="45.000000" viewBox="0 0 35 45" fill="none" xmlns="http://www.w3.org/2000/svg" xmlns:xlink="http://www.w3.org/1999/xlink">
	<desc>
			Created with Pixso.
	</desc>
	<defs/>
	<path id="Vector" d="M1.19 0C12.1 0 23 0 33.8 0C34.7 0.29 35 1 35 1.9C35 15.6 35 29.4 35 43.1C35 44.4 34.4 45 33.2 45C22.8 45 12.4 45 1.9 45C0.59 45 0 44.4 0 43.1C0 29.4 0 15.6 0 1.9C0 1 0.3 0.29 1.19 0Z" fill="#005AAA" fill-opacity="1.000000" fill-rule="nonzero"/>
	<path id="Vector" d="M23.1 28.79C24.39 28.79 25.7 28.79 27 28.79C27.89 28.79 28.6 28.19 28.6 27.29C28.6 26.39 28 25.79 27 25.79C24.39 25.79 21.89 25.79 19.29 25.79C18.29 25.79 17.7 26.39 17.7 27.29C17.7 28.19 18.29 28.79 19.39 28.79C20.6 28.79 21.79 28.79 23.1 28.79Z" fill="#FFD66B" fill-opacity="1.000000" fill-rule="nonzero"/>
	<path id="Vector" d="M23.1 17C21.79 17 20.6 17 19.29 17C19.1 17 18.79 17 18.6 17.1C17.89 17.29 17.49 18 17.6 18.79C17.7 19.6 18.29 20.1 19.2 20.1C21.79 20.1 24.29 20.1 26.89 20.1C27.89 20.1 28.49 19.5 28.6 18.6C28.6 17.7 27.99 17.1 26.89 17.1C25.7 17 24.39 17 23.1 17Z" fill="#FFD66B" fill-opacity="1.000000" fill-rule="nonzero"/>
	<path id="Vector" d="M23.1 11.1C24.39 11.1 25.7 11.1 27 11.1C27.89 11.1 28.5 10.5 28.6 9.6C28.6 8.7 28 8.1 27 8.1C24.39 8.1 21.79 8.1 19.1 8.1C18.5 8.1 18 8.3 17.7 8.9C17.1 9.9 17.79 11.1 19 11.1C20.39 11.1 21.79 11.1 23.1 11.1Z" fill="#FFD66B" fill-opacity="1.000000" fill-rule="nonzero"/>
	<path id="Vector" d="M23.1 34.7C21.8 34.7 20.5 34.7 19.29 34.7C18.5 34.7 18 35 17.79 35.6C17.4 36.6 18.1 37.6 19.29 37.7C20.8 37.7 22.3 37.7 23.8 37.7C24.9 37.7 26 37.7 27.1 37.7C27.7 37.7 28.2 37.5 28.5 36.9C29.1 35.9 28.4 34.7 27.1 34.7C25.7 34.7 24.4 34.7 23.1 34.7Z" fill="#FFD66B" fill-opacity="1.000000" fill-rule="nonzero"/>
	<path id="Vector" d="M9.59 11.89C10 11.89 10.29 11.79 10.6 11.49C11.7 10.39 12.7 9.39 13.79 8.29C14.39 7.59 14.39 6.79 13.79 6.09C13.2 5.49 12.29 5.49 11.6 6.09C11.1 6.59 10.6 7.09 10.1 7.59C9.5 8.19 9.5 8.19 9 7.69C8.29 7.09 7.5 7.09 6.89 7.69C6.29 8.29 6.29 9.19 6.89 9.79C7.39 10.39 8 10.89 8.5 11.39C8.79 11.79 9.09 11.89 9.59 11.89Z" fill="#FFD66B" fill-opacity="1.000000" fill-rule="nonzero"/>
	<path id="Vector" d="M9.5 38.49C9.9 38.49 10.29 38.29 10.6 37.99C11.6 36.99 12.7 35.9 13.7 34.9C14.4 34.2 14.4 33.29 13.7 32.7C13.1 32.09 12.2 32.09 11.5 32.79C11 33.29 10.4 33.9 9.9 34.4C9.4 34.9 9.4 34.9 9 34.4C8.29 33.7 7.5 33.7 6.79 34.29C6.19 34.9 6.19 35.79 6.79 36.49C7.29 36.99 7.79 37.49 8.29 37.99C8.69 38.4 9.09 38.49 9.5 38.49Z" fill="#FFD66B" fill-opacity="1.000000" fill-rule="nonzero"/>
	<path id="Vector" d="M7.9 16.2C7.3 16.2 6.8 16.5 6.5 17.1C6.2 17.7 6.3 18.3 6.8 18.7C7.3 19.3 7.8 19.8 8.4 20.3C9.1 21 9.9 21 10.6 20.3C11.6 19.3 12.7 18.2 13.7 17.2C14.4 16.5 14.4 15.6 13.7 15C13.1 14.4 12.2 14.4 11.5 15.1C10.9 15.7 10.4 16.2 9.8 16.8C9.5 17.1 9.3 17.2 9 16.8C8.8 16.4 8.4 16.1 7.9 16.2Z" fill="#FFD66B" fill-opacity="1.000000" fill-rule="nonzero"/>
	<path id="Vector" d="M9.5 29.6C10 29.6 10.3 29.4 10.6 29.1C11.6 28.1 12.6 27 13.7 26C14.4 25.3 14.4 24.4 13.8 23.8C13.2 23.2 12.3 23.2 11.6 23.9C11.1 24.4 10.6 24.9 10.1 25.5C9.6 26 9.6 26 9.1 25.5C8.4 24.9 7.6 24.9 7 25.5C6.4 26.1 6.4 27 7 27.7C7.5 28.2 8.1 28.8 8.6 29.3C8.8 29.5 9.1 29.6 9.5 29.6Z" fill="#FFD66B" fill-opacity="1.000000" fill-rule="nonzero"/>
</svg>
