<svg width="33.000000" height="33.000000" viewBox="0 0 33 33" fill="none" xmlns="http://www.w3.org/2000/svg" xmlns:xlink="http://www.w3.org/1999/xlink">
	<desc>
			Created with Pixso.
	</desc>
	<defs>
		<clipPath id="clip1_611">
			<rect id="phone" width="33.117054" height="33.117054" transform="translate(-0.400940 -0.995117)" fill="white" fill-opacity="0"/>
		</clipPath>
	</defs>
	<g opacity="0.100000">
		<rect id="phone" width="33.117054" height="33.117054" transform="translate(-0.400940 -0.995117)" fill="#FFFFFF" fill-opacity="0"/>
		<g clip-path="url(#clip1_611)">
			<path id="Vector" d="M9.62 32.12L22.69 32.12C24.29 32.12 25.59 30.82 25.59 29.21L25.59 1.9C25.59 0.3 24.29 -1 22.69 -1L9.62 -1C8.01 -1 6.71 0.3 6.71 1.9L6.71 29.21C6.71 30.82 8.01 32.12 9.62 32.12ZM17.41 30.27L14.89 30.27C14.58 30.27 14.32 30.01 14.32 29.69C14.32 29.38 14.58 29.12 14.89 29.12L17.41 29.12C17.73 29.12 17.98 29.38 17.98 29.69C17.98 30.01 17.73 30.27 17.41 30.27ZM13.31 0.82L18.99 0.82C19.14 0.82 19.26 0.94 19.26 1.08C19.26 1.23 19.14 1.35 18.99 1.35L13.31 1.35C13.17 1.35 13.05 1.23 13.05 1.08C13.05 0.94 13.17 0.82 13.31 0.82ZM8.12 3.15L24.18 3.15L24.18 27.97L8.12 27.97L8.12 3.15Z" fill="#000000" fill-opacity="1.000000" fill-rule="nonzero"/>
		</g>
	</g>
</svg>
