<svg width="41.000000" height="41.000000" viewBox="0 0 41 41" fill="none" xmlns="http://www.w3.org/2000/svg" xmlns:xlink="http://www.w3.org/1999/xlink">
	<desc>
			Created with Pixso.
	</desc>
	<defs/>
	<path id="Vector" d="M39.72 14.88L36.56 14.2C36.29 13.36 35.95 12.54 35.55 11.75L37.29 9.03C37.61 8.54 37.54 7.91 37.13 7.5L32.21 2.58C31.8 2.17 31.17 2.11 30.68 2.42L27.96 4.16C27.17 3.76 26.35 3.42 25.51 3.15L24.83 -0.01C24.71 -0.57 24.21 -0.97 23.63 -0.97L16.68 -0.97C16.1 -0.97 15.6 -0.57 15.48 -0.01L14.79 3.15C13.95 3.42 13.13 3.76 12.34 4.16L9.62 2.42C9.14 2.11 8.5 2.17 8.09 2.58L3.18 7.5C2.77 7.91 2.7 8.54 3.01 9.03L4.76 11.75C4.36 12.54 4.02 13.36 3.74 14.2L0.59 14.88C0.02 15.01 -0.38 15.51 -0.38 16.08L-0.38 23.04C-0.38 23.61 0.02 24.11 0.59 24.23L3.74 24.92C4.02 25.76 4.36 26.58 4.76 27.37L3.01 30.09C2.7 30.57 2.77 31.21 3.18 31.62L8.09 36.54C8.5 36.94 9.14 37.01 9.62 36.7L12.34 34.95C13.13 35.35 13.95 35.69 14.79 35.97L15.48 39.12C15.6 39.69 16.1 40.09 16.68 40.09L23.63 40.09C24.21 40.09 24.71 39.69 24.83 39.12L25.51 35.97C26.35 35.69 27.17 35.35 27.96 34.95L30.68 36.7C31.17 37.01 31.8 36.94 32.21 36.54L37.13 31.62C37.54 31.21 37.61 30.57 37.29 30.09L35.55 27.37C35.95 26.58 36.29 25.76 36.56 24.92L39.72 24.23C40.28 24.11 40.68 23.61 40.68 23.04L40.68 16.08C40.68 15.51 40.28 15.01 39.72 14.88ZM27.51 19.56C27.51 23.62 24.21 26.92 20.15 26.92C16.09 26.92 12.79 23.62 12.79 19.56C12.79 15.5 16.09 12.2 20.15 12.2C24.21 12.2 27.51 15.5 27.51 19.56Z" fill="#000000" fill-opacity="1.000000" fill-rule="nonzero"/>
</svg>
