<svg width="80.000000" height="80.000000" viewBox="0 0 80 80" fill="none" xmlns="http://www.w3.org/2000/svg" xmlns:xlink="http://www.w3.org/1999/xlink">
	<desc>
			Created with Pixso.
	</desc>
	<defs>
		<clipPath id="clip1_473">
			<rect id="trusted.@ui8_bot" width="80.000000" height="80.000000" transform="translate(0.000000 -0.707520)" fill="white" fill-opacity="0"/>
		</clipPath>
	</defs>
	<rect id="trusted.@ui8_bot" width="80.000000" height="80.000000" transform="translate(0.000000 -0.707520)" fill="#FFFFFF" fill-opacity="0"/>
	<g clip-path="url(#clip1_473)">
		<path id="Vector" d="M73.6 40.89C73.6 59.44 58.55 74.49 40 74.49C21.44 74.49 6.4 59.44 6.4 40.89C6.4 22.33 21.44 7.29 40 7.29C58.55 7.29 73.6 22.33 73.6 40.89Z" fill="#005AAA" fill-opacity="1.000000" fill-rule="evenodd"/>
		<path id="Vector" d="M64 40.89C64 54.14 53.25 64.89 40 64.89C26.74 64.89 16 54.14 16 40.89C16 27.63 26.74 16.89 40 16.89C53.25 16.89 64 27.63 64 40.89Z" fill="#3D8AFF" fill-opacity="1.000000" fill-rule="evenodd"/>
		<path id="Vector" d="M48.4 51.69L40 40.89L40 26.49" stroke="#FFFFFF" stroke-opacity="1.000000" stroke-width="5.000000" stroke-linejoin="round" stroke-linecap="round"/>
		<path id="Vector" d="M36 13.69L22.4 13.69" stroke="#FFD66B" stroke-opacity="1.000000" stroke-width="2.000000" stroke-linejoin="round" stroke-linecap="round"/>
		<path id="Vector" d="M31.2 18.49L11.2 18.49" stroke="#FFD66B" stroke-opacity="1.000000" stroke-width="2.000000" stroke-linejoin="round" stroke-linecap="round"/>
		<path id="Vector" d="M28 23.29L6.4 23.29" stroke="#FFD66B" stroke-opacity="1.000000" stroke-width="2.000000" stroke-linejoin="round" stroke-linecap="round"/>
	</g>
</svg>
