<svg width="57.000000" height="56.000000" viewBox="0 0 57 56" fill="none" xmlns="http://www.w3.org/2000/svg" xmlns:xlink="http://www.w3.org/1999/xlink">
	<desc>
			Created with Pixso.
	</desc>
	<defs/>
	<path id="Vector" d="M2.45 -0.71C1.09 -0.71 0 0.38 0 1.74C0 3.09 1.09 4.19 2.45 4.19C3.8 4.19 4.89 3.09 4.89 1.74C4.89 0.38 3.8 -0.71 2.45 -0.71Z" fill="#005AAA" fill-opacity="1.000000" fill-rule="nonzero"/>
	<path id="Vector" d="M19.61 -0.71C18.26 -0.71 17.16 0.38 17.16 1.74C17.16 3.09 18.26 4.19 19.61 4.19C20.97 4.19 22.06 3.09 22.06 1.74C22.06 0.38 20.97 -0.71 19.61 -0.71Z" fill="#005AAA" fill-opacity="1.000000" fill-rule="nonzero"/>
	<path id="Vector" d="M36.78 -0.71C35.42 -0.71 34.33 0.38 34.33 1.74C34.33 3.09 35.42 4.19 36.78 4.19C38.13 4.19 39.23 3.09 39.23 1.74C39.23 0.38 38.13 -0.71 36.78 -0.71Z" fill="#005AAA" fill-opacity="1.000000" fill-rule="nonzero"/>
	<path id="Vector" d="M53.94 4.19C55.3 4.19 56.39 3.1 56.39 1.74C56.39 0.39 55.3 -0.71 53.94 -0.71C52.59 -0.71 51.49 0.39 51.49 1.74C51.49 3.1 52.59 4.19 53.94 4.19Z" fill="#005AAA" fill-opacity="1.000000" fill-rule="nonzero"/>
	<path id="Vector" d="M2.44 16.45C1.09 16.45 0 17.55 0 18.9C0 20.25 1.09 21.35 2.44 21.35C3.8 21.35 4.89 20.25 4.89 18.9C4.9 17.55 3.8 16.45 2.44 16.45Z" fill="#005AAA" fill-opacity="1.000000" fill-rule="nonzero"/>
	<path id="Vector" d="M19.61 16.45C18.26 16.45 17.16 17.55 17.16 18.9C17.16 20.25 18.26 21.35 19.61 21.35C20.97 21.35 22.06 20.25 22.06 18.9C22.06 17.55 20.97 16.45 19.61 16.45Z" fill="#005AAA" fill-opacity="1.000000" fill-rule="nonzero"/>
	<path id="Vector" d="M36.78 16.45C35.42 16.45 34.33 17.55 34.33 18.9C34.33 20.25 35.42 21.35 36.78 21.35C38.13 21.35 39.23 20.25 39.23 18.9C39.23 17.55 38.13 16.45 36.78 16.45Z" fill="#005AAA" fill-opacity="1.000000" fill-rule="nonzero"/>
	<path id="Vector" d="M53.94 16.45C52.59 16.45 51.49 17.55 51.49 18.9C51.49 20.25 52.59 21.35 53.94 21.35C55.3 21.35 56.39 20.25 56.39 18.9C56.39 17.55 55.3 16.45 53.94 16.45Z" fill="#005AAA" fill-opacity="1.000000" fill-rule="nonzero"/>
	<path id="Vector" d="M2.44 33.61C1.09 33.61 0 34.71 0 36.06C0 37.42 1.09 38.51 2.44 38.51C3.8 38.51 4.89 37.42 4.89 36.06C4.9 34.71 3.8 33.61 2.44 33.61Z" fill="#005AAA" fill-opacity="1.000000" fill-rule="nonzero"/>
	<path id="Vector" d="M19.61 33.61C18.26 33.61 17.16 34.71 17.16 36.06C17.16 37.42 18.26 38.51 19.61 38.51C20.97 38.51 22.06 37.42 22.06 36.06C22.06 34.71 20.97 33.61 19.61 33.61Z" fill="#005AAA" fill-opacity="1.000000" fill-rule="nonzero"/>
	<path id="Vector" d="M36.78 33.61C35.42 33.61 34.33 34.71 34.33 36.06C34.33 37.42 35.42 38.51 36.78 38.51C38.13 38.51 39.23 37.42 39.23 36.06C39.23 34.71 38.13 33.61 36.78 33.61Z" fill="#005AAA" fill-opacity="1.000000" fill-rule="nonzero"/>
	<path id="Vector" d="M53.94 33.61C52.59 33.61 51.49 34.71 51.49 36.06C51.49 37.42 52.59 38.51 53.94 38.51C55.3 38.51 56.39 37.42 56.39 36.06C56.39 34.71 55.3 33.61 53.94 33.61Z" fill="#005AAA" fill-opacity="1.000000" fill-rule="nonzero"/>
	<path id="Vector" d="M2.44 50.77C1.09 50.77 0 51.86 0 53.22C0 54.57 1.09 55.67 2.44 55.67C3.8 55.67 4.89 54.57 4.89 53.22C4.9 51.87 3.8 50.77 2.44 50.77Z" fill="#005AAA" fill-opacity="1.000000" fill-rule="nonzero"/>
	<path id="Vector" d="M19.61 50.77C18.26 50.77 17.16 51.86 17.16 53.22C17.16 54.57 18.26 55.67 19.61 55.67C20.97 55.67 22.06 54.57 22.06 53.22C22.06 51.87 20.97 50.77 19.61 50.77Z" fill="#005AAA" fill-opacity="1.000000" fill-rule="nonzero"/>
	<path id="Vector" d="M36.78 50.77C35.42 50.77 34.33 51.86 34.33 53.22C34.33 54.57 35.42 55.67 36.78 55.67C38.13 55.67 39.23 54.57 39.23 53.22C39.23 51.87 38.13 50.77 36.78 50.77Z" fill="#005AAA" fill-opacity="1.000000" fill-rule="nonzero"/>
	<path id="Vector" d="M53.94 50.77C52.59 50.77 51.49 51.86 51.49 53.22C51.49 54.57 52.59 55.67 53.94 55.67C55.3 55.67 56.39 54.57 56.39 53.22C56.39 51.87 55.3 50.77 53.94 50.77Z" fill="#005AAA" fill-opacity="1.000000" fill-rule="nonzero"/>
</svg>
