<svg width="78.000000" height="78.000000" viewBox="0 0 78 78" fill="none" xmlns="http://www.w3.org/2000/svg" xmlns:xlink="http://www.w3.org/1999/xlink">
	<desc>
			Created with Pixso.
	</desc>
	<defs/>
	<path id="Vector" d="M39.92 0.34C38.96 -0.62 37.41 -0.62 36.46 0.34C35.98 0.82 35.74 1.44 35.74 2.07C35.74 2.7 35.98 3.32 36.46 3.8C37.41 4.76 38.96 4.76 39.92 3.8C40.4 3.32 40.64 2.7 40.64 2.07C40.64 1.44 40.4 0.82 39.92 0.34ZM27.78 12.47C26.83 11.52 25.28 11.52 24.32 12.47C23.84 12.95 23.6 13.58 23.6 14.21C23.6 14.83 23.84 15.46 24.32 15.94C25.28 16.9 26.83 16.9 27.78 15.94C28.27 15.46 28.5 14.84 28.5 14.21C28.5 13.58 28.26 12.95 27.78 12.47ZM52.06 12.48C51.1 11.52 49.55 11.52 48.59 12.48C48.11 12.95 47.87 13.58 47.87 14.21C47.87 14.83 48.11 15.46 48.59 15.94C49.55 16.9 51.1 16.9 52.06 15.94C52.54 15.46 52.78 14.83 52.78 14.21C52.78 13.58 52.54 12.95 52.06 12.48ZM15.65 24.61C14.69 23.65 13.14 23.65 12.18 24.61C11.71 25.09 11.47 25.71 11.47 26.34C11.47 26.97 11.71 27.59 12.18 28.07C13.14 29.03 14.69 29.03 15.65 28.07C16.13 27.6 16.37 26.97 16.37 26.34C16.37 25.72 16.13 25.09 15.65 24.61ZM39.92 24.61C38.96 23.65 37.42 23.65 36.46 24.61C35.98 25.09 35.74 25.72 35.74 26.34C35.74 26.97 35.98 27.6 36.46 28.08C37.42 29.03 38.96 29.03 39.92 28.08C40.4 27.6 40.64 26.97 40.64 26.34C40.64 25.72 40.4 25.09 39.92 24.61ZM64.2 24.61C63.24 23.66 61.69 23.66 60.73 24.61C60.25 25.09 60.01 25.72 60.01 26.35C60.01 26.97 60.25 27.6 60.73 28.08C61.69 29.04 63.24 29.04 64.2 28.08C64.67 27.6 64.91 26.97 64.91 26.35C64.91 25.72 64.67 25.09 64.2 24.61ZM3.52 36.74C2.56 35.78 1.01 35.78 0.05 36.74C-0.43 37.22 -0.67 37.85 -0.67 38.47C-0.67 39.1 -0.43 39.73 0.05 40.2C1.01 41.16 2.56 41.16 3.52 40.2C4 39.73 4.24 39.1 4.24 38.48C4.24 37.85 4 37.22 3.52 36.74ZM27.79 36.75C26.83 35.79 25.28 35.79 24.32 36.75C23.84 37.23 23.6 37.85 23.6 38.48C23.6 39.11 23.84 39.73 24.32 40.21C25.28 41.17 26.83 41.17 27.79 40.21C28.27 39.73 28.51 39.11 28.51 38.48C28.51 37.85 28.27 37.23 27.79 36.75ZM52.06 36.75C51.1 35.79 49.55 35.79 48.6 36.75C48.12 37.23 47.88 37.85 47.88 38.48C47.88 39.11 48.12 39.73 48.6 40.21C49.55 41.17 51.1 41.17 52.06 40.21C52.54 39.73 52.78 39.11 52.78 38.48C52.78 37.85 52.54 37.23 52.06 36.75ZM72.86 40.22C73.82 41.18 75.37 41.18 76.33 40.22C76.81 39.74 77.05 39.11 77.05 38.49C77.05 37.86 76.81 37.23 76.33 36.76C75.37 35.8 73.82 35.8 72.86 36.76C72.39 37.23 72.15 37.86 72.15 38.49C72.15 39.11 72.39 39.74 72.86 40.22ZM15.66 48.88C14.7 47.92 13.15 47.92 12.19 48.88C11.71 49.36 11.47 49.98 11.47 50.61C11.47 51.24 11.71 51.86 12.19 52.34C13.15 53.3 14.7 53.3 15.66 52.34C16.13 51.87 16.37 51.24 16.37 50.61C16.37 49.98 16.13 49.36 15.66 48.88ZM39.92 48.88C38.97 47.93 37.42 47.93 36.46 48.88C35.98 49.36 35.74 49.99 35.74 50.62C35.74 51.24 35.98 51.87 36.46 52.35C37.42 53.31 38.97 53.31 39.92 52.35C40.4 51.87 40.64 51.24 40.64 50.62C40.64 49.99 40.4 49.36 39.92 48.88ZM64.2 48.89C63.24 47.93 61.69 47.93 60.73 48.89C60.25 49.37 60.02 49.99 60.02 50.62C60.02 51.25 60.25 51.87 60.73 52.35C61.69 53.31 63.24 53.31 64.2 52.35C64.68 51.87 64.92 51.25 64.92 50.62C64.92 49.99 64.68 49.37 64.2 48.89ZM27.79 61.02C26.84 60.06 25.29 60.06 24.33 61.02C23.85 61.49 23.61 62.12 23.61 62.75C23.61 63.37 23.85 64 24.33 64.48C25.29 65.44 26.84 65.44 27.79 64.48C28.27 64 28.51 63.38 28.51 62.75C28.51 62.12 28.27 61.49 27.79 61.02ZM52.06 61.02C51.1 60.06 49.56 60.06 48.6 61.02C48.12 61.5 47.88 62.13 47.88 62.75C47.88 63.38 48.12 64.01 48.6 64.49C49.56 65.44 51.1 65.44 52.06 64.49C52.54 64.01 52.78 63.38 52.78 62.75C52.78 62.13 52.54 61.5 52.06 61.02ZM39.93 73.15C38.97 72.2 37.42 72.2 36.47 73.15C35.99 73.63 35.75 74.26 35.75 74.89C35.75 75.51 35.99 76.14 36.47 76.62C37.42 77.58 38.97 77.58 39.93 76.62C40.41 76.14 40.65 75.51 40.65 74.89C40.65 74.26 40.41 73.63 39.93 73.15Z" fill="#005AAA" fill-opacity="1.000000" fill-rule="evenodd"/>
</svg>
