<svg width="56.000000" height="56.000000" viewBox="0 0 56 56" fill="none" xmlns="http://www.w3.org/2000/svg" xmlns:xlink="http://www.w3.org/1999/xlink">
	<desc>
			Created with Pixso.
	</desc>
	<defs>
		<clipPath id="clip1_114">
			<rect id="map-pin" width="32.000000" height="32.000000" transform="translate(12.000000 12.000000)" fill="white" fill-opacity="0"/>
		</clipPath>
	</defs>
	<g opacity="0.100000">
		<path id="Ellipse 136" d="M51.34 12.54C50.59 11.41 49.76 10.34 48.86 9.34C44.1 3.99 37.73 0.92 31.12 0.18C24 -0.63 17.2 1.32 11.78 5.17C5.94 9.32 2.17 15.3 0.7 21.79C-0.9 28.77 0.28 35.75 3.51 41.56C4.17 42.76 4.91 43.89 5.72 44.95C11.18 52.16 21.19 47.51 24.17 38.97C26.46 32.4 32.66 28 39.62 28C48.66 28 56.34 20.08 51.34 12.54Z" fill="#005AAA" fill-opacity="1.000000" fill-rule="evenodd"/>
	</g>
	<rect id="map-pin" width="32.000000" height="32.000000" transform="translate(12.000000 12.000000)" fill="#FFFFFF" fill-opacity="0"/>
	<g clip-path="url(#clip1_114)">
		<path id="Vector" d="M40 25.33C40 34.66 28 42.66 28 42.66C28 42.66 16 34.66 16 25.33C16 22.15 17.26 19.09 19.51 16.84C21.76 14.59 24.81 13.33 28 13.33C31.18 13.33 34.23 14.59 36.48 16.84C38.73 19.09 40 22.15 40 25.33Z" fill="#005AAA" fill-opacity="1.000000" fill-rule="nonzero"/>
		<path id="Vector" d="M28 29.33C25.79 29.33 24 27.54 24 25.33C24 23.12 25.79 21.33 28 21.33C30.2 21.33 32 23.12 32 25.33C32 27.54 30.2 29.33 28 29.33Z" stroke="#FFD66B" stroke-opacity="1.000000" stroke-width="2.000000" stroke-linejoin="round"/>
	</g>
</svg>
