<svg width="32.000000" height="32.000000" viewBox="0 0 32 32" fill="none" xmlns="http://www.w3.org/2000/svg" xmlns:xlink="http://www.w3.org/1999/xlink">
	<desc>
			Created with Pixso.
	</desc>
	<defs>
		<clipPath id="clip1_86">
			<rect id="map-pin" width="32.000000" height="32.000000" fill="white" fill-opacity="0"/>
		</clipPath>
	</defs>
	<rect id="map-pin" width="32.000000" height="32.000000" fill="#FFFFFF" fill-opacity="0"/>
	<g clip-path="url(#clip1_86)">
		<path id="Vector" d="M28 13.33C28 22.66 16 30.66 16 30.66C16 30.66 4 22.66 4 13.33C4 10.15 5.26 7.09 7.51 4.84C9.76 2.59 12.81 1.33 16 1.33C19.18 1.33 22.23 2.59 24.48 4.84C26.73 7.09 28 10.15 28 13.33Z" fill="#005AAA" fill-opacity="1.000000" fill-rule="nonzero"/>
		<path id="Vector" d="M16 17.33C13.79 17.33 12 15.54 12 13.33C12 11.12 13.79 9.33 16 9.33C18.2 9.33 20 11.12 20 13.33C20 15.54 18.2 17.33 16 17.33Z" stroke="#FFD66B" stroke-opacity="1.000000" stroke-width="2.000000" stroke-linejoin="round"/>
	</g>
</svg>
