<svg width="35.000000" height="35.000000" viewBox="0 0 35 35" fill="none" xmlns="http://www.w3.org/2000/svg" xmlns:xlink="http://www.w3.org/1999/xlink">
	<desc>
			Created with Pixso.
	</desc>
	<defs/>
	<path id="bg" d="M35 16.88C35 26.54 27.16 34.38 17.5 34.38C7.83 34.38 0 26.54 0 16.88C0 7.21 7.83 -0.62 17.5 -0.62C27.16 -0.62 35 7.21 35 16.88Z" fill="#005AAA" fill-opacity="1.000000" fill-rule="evenodd"/>
	<path id="faceb" d="M14.05 28.18L18.25 28.18L18.25 18.48L21.35 18.48L21.95 14.58L18.25 14.58L18.25 11.63C18.25 10.53 19.29 9.93 20.29 9.93L22.1 9.93L22.1 6.68L18.85 6.53C15.75 6.33 14.05 8.78 14.05 11.68L14.05 14.58L10.5 14.58L10.5 18.48L14.05 18.48L14.05 28.18Z" fill="#FFD66B" fill-opacity="1.000000" fill-rule="evenodd"/>
</svg>
