<svg width="184.000000" height="212.000000" viewBox="0 0 184 212" fill="none" xmlns="http://www.w3.org/2000/svg" xmlns:xlink="http://www.w3.org/1999/xlink">
	<desc>
			Created with Pixso.
	</desc>
	<defs>
		<filter id="filter_1_622_dd" x="-0.842163" y="-0.707520" width="183.999985" height="212.000000" filterUnits="userSpaceOnUse" color-interpolation-filters="sRGB">
			<feFlood flood-opacity="0" result="BackgroundImageFix"/>
			<feColorMatrix in="SourceAlpha" type="matrix" values="0 0 0 0 0 0 0 0 0 0 0 0 0 0 0 0 0 0 127 0" result="hardAlpha"/>
			<feOffset dx="0" dy="2.76726"/>
			<feGaussianBlur stdDeviation="0.737935"/>
			<feComposite in2="hardAlpha" operator="out" k2="-1" k3="1"/>
			<feColorMatrix type="matrix" values="0 0 0 0 1 0 0 0 0 0.41961 0 0 0 0 0 0 0 0 0.047 0"/>
			<feBlend mode="normal" in2="BackgroundImageFix" result="effect_dropShadow_1"/>
			<feColorMatrix in="SourceAlpha" type="matrix" values="0 0 0 0 0 0 0 0 0 0 0 0 0 0 0 0 0 0 127 0" result="hardAlpha"/>
			<feOffset dx="0" dy="6.6501"/>
			<feGaussianBlur stdDeviation="1.77336"/>
			<feComposite in2="hardAlpha" operator="out" k2="-1" k3="1"/>
			<feColorMatrix type="matrix" values="0 0 0 0 1 0 0 0 0 0.41961 0 0 0 0 0 0 0 0 0.071 0"/>
			<feBlend mode="normal" in2="effect_dropShadow_1" result="effect_dropShadow_2"/>
			<feColorMatrix in="SourceAlpha" type="matrix" values="0 0 0 0 0 0 0 0 0 0 0 0 0 0 0 0 0 0 127 0" result="hardAlpha"/>
			<feOffset dx="0" dy="12.5216"/>
			<feGaussianBlur stdDeviation="3.33908"/>
			<feComposite in2="hardAlpha" operator="out" k2="-1" k3="1"/>
			<feColorMatrix type="matrix" values="0 0 0 0 1 0 0 0 0 0.41961 0 0 0 0 0 0 0 0 0.086 0"/>
			<feBlend mode="normal" in2="effect_dropShadow_2" result="effect_dropShadow_3"/>
			<feColorMatrix in="SourceAlpha" type="matrix" values="0 0 0 0 0 0 0 0 0 0 0 0 0 0 0 0 0 0 127 0" result="hardAlpha"/>
			<feOffset dx="0" dy="22.3363"/>
			<feGaussianBlur stdDeviation="5.95635"/>
			<feComposite in2="hardAlpha" operator="out" k2="-1" k3="1"/>
			<feColorMatrix type="matrix" values="0 0 0 0 1 0 0 0 0 0.41961 0 0 0 0 0 0 0 0 0.1 0"/>
			<feBlend mode="normal" in2="effect_dropShadow_3" result="effect_dropShadow_4"/>
			<feColorMatrix in="SourceAlpha" type="matrix" values="0 0 0 0 0 0 0 0 0 0 0 0 0 0 0 0 0 0 127 0" result="hardAlpha"/>
			<feOffset dx="0" dy="41.7776"/>
			<feGaussianBlur stdDeviation="11.1407"/>
			<feComposite in2="hardAlpha" operator="out" k2="-1" k3="1"/>
			<feColorMatrix type="matrix" values="0 0 0 0 1 0 0 0 0 0.41961 0 0 0 0 0 0 0 0 0.12 0"/>
			<feBlend mode="normal" in2="effect_dropShadow_4" result="effect_dropShadow_5"/>
			<feColorMatrix in="SourceAlpha" type="matrix" values="0 0 0 0 0 0 0 0 0 0 0 0 0 0 0 0 0 0 127 0" result="hardAlpha"/>
			<feOffset dx="0" dy="100"/>
			<feGaussianBlur stdDeviation="26.6667"/>
			<feComposite in2="hardAlpha" operator="out" k2="-1" k3="1"/>
			<feColorMatrix type="matrix" values="0 0 0 0 1 0 0 0 0 0.41961 0 0 0 0 0 0 0 0 0.17 0"/>
			<feBlend mode="normal" in2="effect_dropShadow_5" result="effect_dropShadow_6"/>
			<feBlend mode="normal" in="SourceGraphic" in2="effect_dropShadow_6" result="shape"/>
		</filter>
	</defs>
	<g filter="url(#filter_1_622_dd)">
		<path id="Vector" d="M103.08 18.02C102.72 13.25 100.5 10.26 98.54 7.62C96.72 5.18 95.15 3.07 95.15 -0.04C95.15 -0.29 95.01 -0.52 94.79 -0.64C94.57 -0.75 94.3 -0.73 94.1 -0.59C91.15 1.52 88.7 5.07 87.84 8.46C87.24 10.82 87.17 13.47 87.15 15.22C84.44 14.64 83.82 10.57 83.81 10.53C83.78 10.32 83.65 10.13 83.47 10.03C83.28 9.93 83.05 9.93 82.86 10.02C82.72 10.09 79.36 11.8 79.17 18.61C79.15 18.83 79.15 19.06 79.15 19.29C79.15 25.9 84.54 31.29 91.15 31.29C91.16 31.29 91.17 31.29 91.18 31.29C91.18 31.29 91.18 31.29 91.19 31.29C97.79 31.27 103.15 25.89 103.15 19.29C103.15 18.95 103.08 18.02 103.08 18.02Z" fill="#FF6B00" fill-opacity="1.000000" fill-rule="nonzero"/>
	</g>
	<path id="Vector" d="M91.15 29.79C87.84 29.79 85.15 26.91 85.15 23.38C85.15 23.26 85.15 23.13 85.16 22.99C85.2 21.49 85.48 20.48 85.79 19.8C86.37 21.05 87.41 22.2 89.09 22.2C89.65 22.2 90.09 21.75 90.09 21.2C90.09 19.77 90.12 18.12 90.48 16.63C90.79 15.31 91.55 13.91 92.5 12.79C92.93 14.25 93.76 15.43 94.56 16.58C95.72 18.23 96.92 19.94 97.13 22.84C97.14 23.02 97.15 23.19 97.15 23.38C97.15 26.91 94.46 29.79 91.15 29.79Z" fill="#FFD66B" fill-opacity="1.000000" fill-rule="nonzero"/>
</svg>
