<?xml version="1.0" encoding="UTF-8" standalone="no"?>
<!-- Created with Inkscape (http://www.inkscape.org/) -->

<svg
   width="6.349916mm"
   height="8.4668646mm"
   viewBox="0 0 6.349916 8.4668646"
   version="1.1"
   id="svg1"
   sodipodi:docname="рисунок.svg"
   inkscape:version="1.3.2 (091e20e, 2023-11-25, custom)"
   xmlns:inkscape="http://www.inkscape.org/namespaces/inkscape"
   xmlns:sodipodi="http://sodipodi.sourceforge.net/DTD/sodipodi-0.dtd"
   xmlns="http://www.w3.org/2000/svg"
   xmlns:svg="http://www.w3.org/2000/svg">
  <sodipodi:namedview
     id="namedview1"
     pagecolor="#ffffff"
     bordercolor="#000000"
     borderopacity="0.25"
     inkscape:showpageshadow="2"
     inkscape:pageopacity="0.0"
     inkscape:pagecheckerboard="0"
     inkscape:deskcolor="#d1d1d1"
     inkscape:document-units="mm"
     inkscape:zoom="2.8447557"
     inkscape:cx="10.545721"
     inkscape:cy="14.939772"
     inkscape:window-width="2160"
     inkscape:window-height="1406"
     inkscape:window-x="851"
     inkscape:window-y="2149"
     inkscape:window-maximized="1"
     inkscape:current-layer="layer1"
     inkscape:clip-to-page="false" />
  <defs
     id="defs1" />
  <g
     inkscape:label="Слой 1"
     inkscape:groupmode="layer"
     id="layer1"
     transform="translate(-53.974989,-30.691669)"
     style="opacity:1;mix-blend-mode:normal">
    <path
       id="Vector"
       d="M 60.306479,35.647467 C 60.211229,34.385404 59.623854,33.5943 59.10527,32.8958 c -0.481541,-0.645583 -0.896937,-1.203854 -0.896937,-2.026708 0,-0.06615 -0.03704,-0.127 -0.09525,-0.15875 -0.05821,-0.0291 -0.129646,-0.02381 -0.182563,0.01323 -0.78052,0.558271 -1.42875,1.497541 -1.656291,2.394479 -0.15875,0.624417 -0.177271,1.325562 -0.182563,1.788583 -0.717021,-0.153458 -0.881062,-1.230312 -0.883708,-1.240896 -0.0079,-0.05556 -0.04233,-0.105833 -0.08996,-0.132291 -0.05027,-0.02646 -0.111125,-0.02646 -0.161396,-0.0026 -0.03704,0.01852 -0.926042,0.470958 -0.976313,2.272771 -0.0053,0.05821 -0.0053,0.119062 -0.0053,0.179916 0,1.748896 1.426104,3.175 3.175,3.175 0.0026,0 0.0053,0 0.0079,0 0,0 0,0 0.0026,0 1.74625,-0.0053 3.164416,-1.42875 3.164416,-3.175 0,-0.08996 -0.01852,-0.33602 -0.01852,-0.33602 z"
       fill="#ff6b00"
       fill-opacity="1"
       fill-rule="nonzero"
       inkscape:label="Vector"
       style="display:inline;stroke-width:0.264583" />
    <path
       id="path13"
       d="m 57.15,38.761612 c -0.875771,0 -1.5875,-0.762 -1.5875,-1.695979 0,-0.03175 0,-0.06615 0.0026,-0.103187 0.01058,-0.396875 0.08467,-0.664104 0.166688,-0.844021 0.153458,0.330729 0.428625,0.635 0.873125,0.635 0.148167,0 0.264583,-0.119063 0.264583,-0.264583 0,-0.378355 0.0079,-0.814917 0.103188,-1.209146 0.08202,-0.34925 0.283104,-0.719667 0.534458,-1.016 0.113771,0.386291 0.333375,0.6985 0.545042,1.002771 0.306916,0.436562 0.624416,0.889 0.679979,1.656291 0.0026,0.04762 0.0053,0.0926 0.0053,0.142875 0,0.933979 -0.71173,1.695979 -1.5875,1.695979 z"
       fill="#ffd66b"
       fill-opacity="1"
       fill-rule="nonzero"
       inkscape:label="path13"
       style="stroke-width:0.264583" />
  </g>
</svg>
