<svg width="89.000000" height="13.000000" viewBox="0 0 89 13" fill="none" xmlns="http://www.w3.org/2000/svg" xmlns:xlink="http://www.w3.org/1999/xlink">
	<desc>
			Created with Pixso.
	</desc>
	<defs/>
	<path id="Vector" d="M9.06 4.52L0.94 -0.64C0.29 -1.06 -0.55 -0.59 -0.55 0.18L-0.55 11.24C-0.55 12.04 0.35 12.5 0.99 12.03L9.1 6.13C9.67 5.72 9.64 4.89 9.06 4.52Z" fill="#DCE0E2" fill-opacity="1.000000" fill-rule="nonzero"/>
	<path id="Vector" d="M28.72 4.52L20.61 -0.64C19.96 -1.06 19.11 -0.59 19.11 0.18L19.11 11.24C19.11 12.04 20.01 12.5 20.65 12.03L28.77 6.13C29.32 5.72 29.3 4.89 28.72 4.52Z" fill="#DCE0E2" fill-opacity="1.000000" fill-rule="nonzero"/>
	<path id="Vector" d="M48.38 4.52L40.27 -0.64C39.62 -1.06 38.77 -0.59 38.77 0.18L38.77 11.24C38.77 12.04 39.67 12.5 40.31 12.03L48.43 6.13C48.98 5.72 48.96 4.89 48.38 4.52Z" fill="#DCE0E2" fill-opacity="1.000000" fill-rule="nonzero"/>
	<path id="Vector" d="M68.04 4.52L59.93 -0.64C59.28 -1.06 58.43 -0.59 58.43 0.18L58.43 11.24C58.43 12.04 59.33 12.5 59.97 12.03L68.09 6.13C68.65 5.72 68.62 4.89 68.04 4.52Z" fill="#DCE0E2" fill-opacity="1.000000" fill-rule="nonzero"/>
	<path id="Vector" d="M87.7 4.52L79.59 -0.64C78.94 -1.06 78.09 -0.59 78.09 0.18L78.09 11.24C78.09 12.04 78.99 12.5 79.63 12.03L87.75 6.13C88.31 5.72 88.28 4.89 87.7 4.52Z" fill="#DCE0E2" fill-opacity="1.000000" fill-rule="nonzero"/>
</svg>
