<svg width="35.000000" height="35.000000" viewBox="0 0 35 35" fill="none" xmlns="http://www.w3.org/2000/svg" xmlns:xlink="http://www.w3.org/1999/xlink">
	<desc>
			Created with Pixso.
	</desc>
	<defs/>
	<path id="bg" d="M35 16.88C35 26.54 27.16 34.38 17.5 34.38C7.83 34.38 0 26.54 0 16.88C0 7.21 7.83 -0.62 17.5 -0.62C27.16 -0.62 35 7.21 35 16.88Z" fill="#005AAA" fill-opacity="1.000000" fill-rule="evenodd"/>
	<path id="inst" d="M12.79 6.78L22.2 6.78C25.2 6.78 27.7 9.28 27.7 12.28L27.7 21.63C27.7 24.63 25.2 27.13 22.2 27.13L12.79 27.13C9.79 27.13 7.29 24.63 7.29 21.63L7.29 12.28C7.29 9.23 9.79 6.78 12.79 6.78ZM22.95 10.33C23.6 10.33 24.1 10.88 24.1 11.48C24.1 12.13 23.54 12.63 22.95 12.63C22.24 12.63 21.79 12.08 21.79 11.48C21.79 10.88 22.29 10.33 22.95 10.33ZM17.49 11.38C20.54 11.38 23.09 13.93 23.09 16.93C23.09 19.98 20.54 22.48 17.54 22.48L17.49 22.48C14.49 22.48 11.99 19.98 11.99 16.93C11.99 13.93 14.45 11.38 17.49 11.38ZM17.49 13.28C19.54 13.28 21.2 14.93 21.2 16.93C21.2 18.98 19.54 20.63 17.54 20.63L17.49 20.63C15.49 20.63 13.84 18.98 13.84 16.93C13.84 14.93 15.49 13.28 17.49 13.28ZM12.84 8.53L22.15 8.53C24.24 8.53 25.95 10.23 25.95 12.33L25.95 21.58C25.95 23.68 24.24 25.38 22.15 25.38L12.84 25.38C10.74 25.38 9.04 23.68 9.04 21.58L9.04 12.33C9.04 10.23 10.74 8.53 12.84 8.53Z" fill="#FFD66B" fill-opacity="1.000000" fill-rule="evenodd"/>
</svg>
