<svg width="202.000000" height="72.000000" viewBox="0 0 202 72" fill="none" xmlns="http://www.w3.org/2000/svg" xmlns:xlink="http://www.w3.org/1999/xlink">
	<desc>
			Created with Pixso.
	</desc>
	<defs/>
	<path id="Rectangle 30" d="M23.54 25.47L36.02 25.47L36.02 33.08L23.54 33.08L23.54 25.47Z" fill="#F8AF78" fill-opacity="1.000000" fill-rule="nonzero"/>
	<path id="Rectangle 31 (Stroke)" d="M35.53 25.96L24.03 25.96L24.03 32.58L35.53 32.58L35.53 25.96ZM23.54 25.47L23.54 33.08L36.02 33.08L36.02 25.47L23.54 25.47Z" fill="#000000" fill-opacity="1.000000" fill-rule="evenodd"/>
	<path id="Vector 88" d="M36.28 29.16C35.83 30.08 33.9 31.91 29.74 31.91C25.59 31.91 23.65 30.08 23.21 29.16C19.66 29.47 15.93 30.81 12.69 32.95L9.29 36.98L6.13 42.2L4.94 45.3C4.37 45.5 3.17 46.07 2.96 46.69C2.76 47.31 3.36 48.96 3.69 49.7C3.84 51.36 4.24 53.08 4.94 54.84L9.27 57.12L9.84 55.98C10.42 54.92 12.79 53.43 13.04 53.41C13.35 53.39 13.42 53.2 13.87 52.46C14.32 51.73 14.05 50.59 13.7 49.7L14.67 48.31L16.82 44L16.82 44.8L17.61 59.61L20.86 60.28L26.19 60.6C28.56 60.74 30.93 60.72 33.3 60.53L36.41 60.28L40.05 59.53L41.4 44.6L41.62 44.14C41.65 44.1 41.94 44.22 42.89 45.02C44.07 46.01 44.4 47.18 44.82 48.06C45.16 48.76 45.52 50.64 45.75 51.28C45.16 51.51 45.22 51.53 45.04 52.3C44.86 53.06 44.58 55.34 44.47 56.38L55.03 55.98L56.17 54.35C55.87 49.56 55.59 45.62 54.18 42.24C50.22 33.6 42.99 29.16 36.28 29.16Z" fill="#FFFFFF" fill-opacity="1.000000" fill-rule="evenodd"/>
	<path id="Vector 154 (Stroke)" d="M41.81 44.11L40.21 59.67L39.72 59.62L41.32 44.06L41.81 44.11ZM17 44.75L17.59 59.31L17.1 59.33L16.5 44.77L17 44.75Z" fill="#000000" fill-opacity="1.000000" fill-rule="evenodd"/>
	<path id="Vector 155 (Stroke)" d="M22.89 60.56L10.16 58.44L10.24 57.95L22.98 60.07C27.9 60.89 32.93 60.81 37.82 59.82L47.08 57.95L47.18 58.43L37.92 60.3C32.97 61.3 27.88 61.38 22.89 60.56Z" fill="#000000" fill-opacity="1.000000" fill-rule="evenodd"/>
	<path id="Vector 151 (Stroke)" d="M45.14 32.21C42.38 30.58 39.34 29.78 35.8 29.18L35.88 28.69C39.45 29.3 42.56 30.11 45.4 31.78C48.24 33.46 50.79 35.99 53.25 40.02C54.71 42.41 55.67 45.61 56.1 48.52C56.32 49.98 56.41 51.37 56.35 52.55C56.3 53.73 56.11 54.73 55.76 55.39L55.66 55.58L45.56 52L45.53 51.87C45.4 51.31 45.31 50.77 45.22 50.27C45.2 50.12 45.17 49.98 45.14 49.83C45.03 49.2 44.91 48.62 44.69 48.04C44.26 46.93 43.45 45.81 41.56 44.5L40.52 45.25L40.23 44.85L41.31 44.07L41.31 43.08L41.8 43.08L41.8 44.06C43.77 45.43 44.67 46.63 45.15 47.86C45.39 48.48 45.52 49.11 45.63 49.74C45.66 49.9 45.68 50.05 45.71 50.2C45.79 50.66 45.87 51.13 45.98 51.63L55.42 54.97C55.66 54.4 55.82 53.57 55.86 52.53C55.91 51.39 55.83 50.03 55.61 48.59C55.19 45.72 54.24 42.59 52.83 40.28C50.4 36.3 47.9 33.83 45.14 32.21Z" fill="#000000" fill-opacity="1.000000" fill-rule="evenodd"/>
	<path id="Ellipse 21" d="M56.53 57.09C55.68 59.23 52.31 59.91 49.01 58.6C45.71 57.29 43.73 54.49 44.59 52.34C45.45 50.2 48.82 49.52 52.12 50.83C55.42 52.14 57.39 54.94 56.53 57.09Z" fill="#FFFFFF" fill-opacity="1.000000" fill-rule="nonzero"/>
	<path id="Ellipse 21 (Stroke)" d="M53.59 58.66C54.85 58.4 55.73 57.77 56.08 56.9C56.42 56.04 56.22 54.98 55.48 53.93C54.74 52.89 53.51 51.91 51.93 51.29C50.36 50.66 48.79 50.52 47.54 50.77C46.28 51.03 45.4 51.66 45.05 52.52C44.7 53.39 44.91 54.45 45.65 55.5C46.38 56.54 47.62 57.52 49.19 58.14C50.76 58.77 52.33 58.91 53.59 58.66ZM49.01 58.6C52.31 59.91 55.68 59.23 56.53 57.09C57.39 54.94 55.42 52.14 52.12 50.83C48.82 49.52 45.45 50.2 44.59 52.34C43.73 54.49 45.71 57.29 49.01 58.6Z" fill="#000000" fill-opacity="1.000000" fill-rule="evenodd"/>
	<path id="Vector 153 (Stroke)" d="M13.89 31.61C16.27 29.96 19.14 29.18 23.61 28.57L23.68 29.06C19.23 29.67 16.45 30.43 14.17 32.01C11.89 33.6 10.1 36.02 7.65 40.03C6.23 42.36 5.09 45 4.46 47.36C4.15 48.54 3.97 49.64 3.95 50.6C3.93 51.46 4.04 52.18 4.28 52.72L13.13 50.52C13.1 50.42 13.09 50.33 13.09 50.23C13.1 50.05 13.15 49.88 13.24 49.72C13.37 49.47 13.6 49.21 13.86 48.92C13.91 48.86 13.97 48.8 14.02 48.73C14.69 47.97 15.65 46.78 16.51 44.4L16.51 43.32L17 43.32L17 44.32L18.09 45.1L17.8 45.5L16.87 44.83C16.02 47.1 15.07 48.29 14.39 49.06C14.33 49.13 14.27 49.19 14.22 49.26C13.96 49.55 13.78 49.76 13.67 49.95C13.61 50.06 13.59 50.15 13.59 50.24C13.59 50.33 13.61 50.44 13.68 50.58L13.81 50.86L4.02 53.29L3.93 53.12C3.57 52.46 3.43 51.58 3.46 50.58C3.48 49.58 3.67 48.44 3.99 47.24C4.62 44.83 5.78 42.14 7.22 39.78C9.67 35.77 11.52 33.26 13.89 31.61Z" fill="#000000" fill-opacity="1.000000" fill-rule="evenodd"/>
	<path id="Vector 88" d="M4.95 53.57L9.88 58.48C10.64 59.24 11.88 59.24 12.64 58.48C13.4 57.72 13.4 56.49 12.64 55.73L7.71 50.82L4.95 53.57Z" fill="#E2001A" fill-opacity="1.000000" fill-rule="evenodd"/>
	<path id="Vector 89 (Stroke)" d="M7.71 50.47L12.82 55.56C13.67 56.42 13.67 57.8 12.82 58.66C11.96 59.51 10.57 59.51 9.71 58.66L4.6 53.57L7.71 50.47ZM5.3 53.57L10.06 58.31C10.72 58.97 11.8 58.97 12.47 58.31C13.13 57.65 13.13 56.57 12.47 55.91L7.71 51.17L5.3 53.57Z" fill="#000000" fill-opacity="1.000000" fill-rule="evenodd"/>
	<path id="Vector 87" d="M19.11 63.44L20.21 65.1C20.26 65.19 20.21 65.29 20.12 65.31C20.1 65.32 20.09 65.31 20.07 65.31L19.59 65.18C19.58 65.18 19.57 65.18 19.56 65.18C19.5 65.19 19.45 65.23 19.44 65.3C19.44 65.3 19.44 65.31 19.44 65.32L19.55 65.85C19.56 65.86 19.56 65.87 19.55 65.89C19.53 65.98 19.43 66.03 19.34 65.98L17.67 64.87C17.65 64.86 17.63 64.84 17.62 64.81L16.87 63.45C16.86 63.43 16.85 63.42 16.84 63.41L12.2 58.78C11.98 58.56 11.98 58.21 12.2 57.99C12.42 57.77 12.77 57.77 12.99 57.99L17.64 62.62C17.65 62.63 17.66 62.64 17.67 62.64L19.05 63.39C19.07 63.4 19.09 63.42 19.11 63.44Z" fill="#FFFFFF" fill-opacity="1.000000" fill-rule="nonzero"/>
	<path id="Vector 87 (Stroke)" d="M12.02 57.82C12.34 57.5 12.85 57.5 13.17 57.82L17.8 62.43L19.16 63.17C19.22 63.2 19.28 63.25 19.31 63.31L20.42 64.97L20.43 64.98C20.56 65.21 20.42 65.5 20.17 65.55C20.1 65.57 20.04 65.56 20.01 65.55L19.73 65.47L19.79 65.8C19.8 65.83 19.81 65.88 19.79 65.94C19.74 66.19 19.45 66.33 19.22 66.19L19.21 66.19L17.54 65.08C17.48 65.04 17.43 64.99 17.4 64.93L16.66 63.57L12.02 58.96C11.71 58.64 11.71 58.13 12.02 57.82ZM19.52 65.42C19.52 65.42 19.52 65.42 19.52 65.42L19.52 65.42ZM12.82 58.16C12.7 58.04 12.5 58.04 12.37 58.16C12.25 58.29 12.25 58.49 12.37 58.61L17.02 63.23C17.05 63.26 17.07 63.3 17.09 63.33L17.82 64.68L19.25 65.63L19.2 65.37C19.2 65.34 19.19 65.3 19.2 65.25C19.23 65.09 19.36 64.96 19.53 64.93C19.58 64.93 19.62 64.93 19.65 64.94L19.84 64.99L18.91 63.6L17.56 62.86C17.52 62.84 17.49 62.82 17.46 62.79L12.82 58.16Z" fill="#000000" fill-opacity="1.000000" fill-rule="evenodd"/>
	<path id="Ellipse 22" d="M2.27 47.21C1.34 49.33 3.21 52.2 6.46 53.62C9.71 55.05 13.1 54.49 14.04 52.38C14.97 50.26 13.1 47.4 9.85 45.97C6.6 44.54 3.21 45.1 2.27 47.21Z" fill="#FFFFFF" fill-opacity="1.000000" fill-rule="nonzero"/>
	<path id="Ellipse 22 (Stroke)" d="M3.21 50.41C2.51 49.33 2.35 48.27 2.72 47.41C3.1 46.56 4 45.96 5.27 45.75C6.53 45.54 8.1 45.74 9.65 46.42C11.2 47.1 12.4 48.12 13.1 49.18C13.8 50.26 13.96 51.32 13.59 52.18C13.21 53.03 12.31 53.63 11.04 53.84C9.77 54.05 8.21 53.85 6.66 53.17C5.11 52.49 3.91 51.48 3.21 50.41ZM6.46 53.62C3.21 52.2 1.34 49.33 2.27 47.21C3.21 45.1 6.6 44.54 9.85 45.97C13.1 47.4 14.97 50.26 14.04 52.38C13.1 54.49 9.71 55.05 6.46 53.62Z" fill="#000000" fill-opacity="1.000000" fill-rule="evenodd"/>
	<path id="Vector 100" d="M3.48 47.49L5.38 49.38L2.68 52.07L0.79 50.18C0.04 49.44 0.04 48.24 0.79 47.49C1.53 46.75 2.74 46.75 3.48 47.49Z" fill="#E2001A" fill-opacity="1.000000" fill-rule="evenodd"/>
	<path id="Vector 101 (Stroke)" d="M2.68 52.41L0.61 50.36C-0.23 49.52 -0.23 48.16 0.61 47.32C1.45 46.48 2.82 46.48 3.66 47.32L5.73 49.38L2.68 52.41ZM5.03 49.38L3.31 47.67C2.66 47.02 1.61 47.02 0.96 47.67C0.31 48.31 0.31 49.36 0.96 50.01L2.68 51.72L5.03 49.38Z" fill="#000000" fill-opacity="1.000000" fill-rule="evenodd"/>
	<path id="Vector" d="M2.47 49.19L1.24 52.74C0.84 53.71 1.02 54.31 1.68 54.73C2.35 55.15 3.03 54.44 3.38 53.89C3.08 54.37 2.71 55.4 3.28 55.89C3.45 56.03 3.66 56.13 3.87 56.18C4.4 56.3 5.08 56.04 5.37 55.58C5.02 56.13 4.59 56.83 5.37 57.32C6.06 57.86 7 57.38 7.35 56.83L5.82 59.86C5.48 60.5 5.5 61.08 5.97 61.37C6.36 61.62 6.91 61.58 7.35 61.06L10.82 56.58L12.36 54.29C13.44 52.7 12.9 50.52 11.21 49.6L7.17 47.38C5.38 46.4 3.14 47.26 2.47 49.19Z" fill="#F8AF78" fill-opacity="1.000000" fill-rule="nonzero"/>
	<path id="Vector (Stroke)" d="M7.05 47.6C5.4 46.69 3.32 47.49 2.71 49.27L1.47 52.83L1.47 52.84C1.28 53.3 1.24 53.63 1.3 53.88C1.36 54.13 1.52 54.33 1.81 54.52C2.02 54.65 2.24 54.63 2.46 54.5C2.7 54.36 2.93 54.12 3.1 53.87C3.12 53.83 3.15 53.8 3.17 53.77L4.12 52.11C4.19 51.99 4.34 51.95 4.46 52.02C4.58 52.09 4.62 52.24 4.55 52.36L3.6 54.01C3.59 54.02 3.59 54.02 3.59 54.02C3.57 54.06 3.54 54.1 3.51 54.14C3.38 54.38 3.26 54.7 3.23 55C3.2 55.31 3.26 55.55 3.44 55.7C3.58 55.82 3.75 55.9 3.93 55.94C4.14 55.99 4.39 55.96 4.62 55.87C4.85 55.78 5.05 55.63 5.16 55.45L6.19 53.76C6.26 53.65 6.41 53.61 6.53 53.68C6.65 53.75 6.68 53.9 6.61 54.02L5.58 55.71L5.57 55.71C5.57 55.72 5.57 55.73 5.56 55.73L5.56 55.74C5.39 56 5.23 56.31 5.18 56.58C5.16 56.71 5.18 56.83 5.22 56.93C5.26 57.03 5.34 57.13 5.5 57.23L5.51 57.24L5.52 57.25C5.77 57.44 6.08 57.45 6.39 57.32C6.71 57.19 6.99 56.93 7.14 56.7L7.98 55.33C8.05 55.21 8.2 55.18 8.32 55.25C8.43 55.32 8.47 55.47 8.4 55.58L7.56 56.96C7.56 56.96 7.56 56.96 7.56 56.96C7.56 56.96 7.56 56.96 7.56 56.97C7.55 56.97 7.55 56.98 7.54 56.99L7.54 56.99L6.04 59.97L6.04 59.97C5.88 60.27 5.82 60.53 5.84 60.72C5.85 60.91 5.94 61.06 6.1 61.16C6.25 61.26 6.42 61.3 6.6 61.26C6.77 61.23 6.97 61.13 7.16 60.91L10.62 56.44L12.16 54.16C13.15 52.68 12.66 50.67 11.09 49.81L7.05 47.6ZM6.6 57.76C6.6 57.76 6.59 57.77 6.58 57.77C6.16 57.94 5.66 57.97 5.22 57.64C5 57.5 4.85 57.32 4.76 57.12C4.68 56.92 4.67 56.71 4.7 56.51C4.7 56.46 4.72 56.4 4.73 56.35C4.44 56.45 4.12 56.49 3.82 56.42C3.57 56.36 3.32 56.25 3.12 56.08C2.77 55.78 2.7 55.34 2.74 54.95C2.74 54.93 2.74 54.92 2.75 54.9C2.73 54.91 2.72 54.92 2.71 54.92C2.37 55.12 1.96 55.19 1.55 54.93C1.18 54.7 0.92 54.4 0.82 54C0.73 53.61 0.8 53.16 1.01 52.66L2.24 49.11C2.95 47.04 5.37 46.11 7.29 47.17L11.33 49.38C13.15 50.38 13.72 52.71 12.57 54.43L11.02 56.73L7.54 61.22L7.54 61.22C7.28 61.52 6.99 61.69 6.68 61.75C6.38 61.8 6.08 61.73 5.84 61.58C5.53 61.39 5.37 61.1 5.35 60.76C5.32 60.44 5.42 60.09 5.6 59.74L6.6 57.76Z" fill="#000000" fill-opacity="1.000000" fill-rule="evenodd"/>
	<path id="Vector 148" d="M44.54 57.62L43.02 60.32C42.59 61.07 41.77 61.5 40.92 61.42C40.41 61.37 40.11 60.83 40.33 60.38L42.23 56.49C42.42 56.11 42.71 55.78 42.98 55.45C43.92 54.33 45.19 52.05 48.98 52.48C51.83 52.8 55.52 55.72 54.1 59.53C52.97 62.58 50.78 62.95 49.83 62.75C48.99 63.43 47.98 63.65 47.45 63.66L45.67 66.68C45.38 67.17 44.72 67.28 44.29 66.91C43.97 66.63 43.89 66.18 44.07 65.8C45.64 62.61 47.23 57.73 46.34 57.36C45.39 56.96 44.89 57.29 44.54 57.62Z" fill="#F8AF78" fill-opacity="1.000000" fill-rule="nonzero"/>
	<path id="Vector 149 (Stroke)" d="M44.77 53.19C45.73 52.49 47.05 52.02 49.01 52.23C50.49 52.4 52.18 53.24 53.33 54.53C54.48 55.83 55.08 57.61 54.33 59.61C53.2 62.66 51.01 63.18 49.9 63.01C49.07 63.65 48.16 63.88 47.59 63.9L45.88 66.81C45.51 67.43 44.67 67.57 44.13 67.09C43.72 66.74 43.62 66.16 43.85 65.69C44.63 64.11 45.41 62.1 45.89 60.45C46.13 59.62 46.29 58.9 46.33 58.36C46.36 58.09 46.35 57.89 46.32 57.75C46.3 57.68 46.29 57.63 46.27 57.61C46.25 57.59 46.25 57.58 46.24 57.58C45.81 57.4 45.5 57.4 45.28 57.45C45.06 57.51 44.89 57.63 44.74 57.78L43.23 60.44C42.76 61.27 41.85 61.75 40.89 61.66C40.22 61.6 39.81 60.88 40.11 60.27L42.01 56.39C42.19 56 42.47 55.68 42.72 55.38C42.75 55.35 42.77 55.32 42.79 55.3C42.89 55.18 42.99 55.05 43.1 54.91C43.51 54.39 44.03 53.72 44.77 53.19ZM47.87 63.38C48.37 63.3 49.05 63.06 49.67 62.56C50.07 62.23 50.45 61.8 50.75 61.21C50.81 61.09 50.96 61.04 51.08 61.1C51.2 61.16 51.25 61.31 51.19 61.43C50.97 61.87 50.7 62.24 50.41 62.54C51.4 62.5 52.97 61.87 53.87 59.44C54.54 57.64 54.01 56.05 52.96 54.86C51.89 53.65 50.31 52.87 48.95 52.72C47.12 52.52 45.91 52.97 45.06 53.59C44.38 54.07 43.92 54.66 43.52 55.18C43.4 55.33 43.28 55.48 43.17 55.61C43.15 55.64 43.13 55.66 43.11 55.69C42.85 55.99 42.61 56.28 42.45 56.6L40.55 60.49C40.41 60.79 40.61 61.14 40.94 61.17C41.7 61.24 42.43 60.86 42.8 60.2L44.34 57.47L44.37 57.45C44.56 57.27 44.8 57.07 45.15 56.98C45.5 56.89 45.92 56.91 46.43 57.13C46.66 57.22 46.76 57.44 46.8 57.64C46.85 57.85 46.85 58.11 46.82 58.4C46.77 58.99 46.6 59.75 46.36 60.59C45.88 62.27 45.08 64.3 44.29 65.91C44.15 66.19 44.22 66.52 44.45 66.72C44.76 66.99 45.25 66.91 45.45 66.56L47.23 63.54L49.1 59.91C49.17 59.79 49.31 59.74 49.44 59.8C49.56 59.87 49.6 60.01 49.54 60.14L47.87 63.38Z" fill="#000000" fill-opacity="1.000000" fill-rule="evenodd"/>
	<path id="Vector 89 (Stroke)" d="M22.6 29.28C22.73 29.11 22.85 28.95 22.93 28.82L23.38 28.99C23.3 29.62 23.6 30.24 24.2 30.92C24.77 31.57 25.58 32.22 26.45 32.93C26.48 32.95 26.5 32.97 26.53 33C27.43 33.72 28.38 34.5 29.16 35.37C29.94 36.23 30.57 37.2 30.8 38.31C30.92 38.93 30.99 40.2 31.03 41.85C31.06 43.52 31.06 45.58 31.03 47.79C30.97 52.22 30.8 57.23 30.59 60.75L30.1 60.72C30.31 57.21 30.48 52.2 30.54 47.79C30.57 45.58 30.57 43.52 30.54 41.86C30.5 40.2 30.43 38.97 30.31 38.41C30.11 37.42 29.54 36.53 28.79 35.7C28.04 34.86 27.12 34.11 26.22 33.38C26.19 33.35 26.15 33.32 26.12 33.3C25.26 32.6 24.43 31.92 23.83 31.24C23.39 30.75 23.06 30.23 22.93 29.67C22.33 30.49 21.54 31.61 21.33 32.99C21.08 34.64 21.66 36.74 24.71 39.17L26.58 35.34L27 39.02C27.72 39.29 28.4 40.06 28.92 41.49C29.48 43.04 29.88 45.41 29.92 48.94C29.93 50.24 29.9 52.61 29.86 54.95C29.86 55.16 29.85 55.38 29.85 55.59C29.82 57.7 29.78 59.69 29.79 60.74L29.3 60.74C29.29 59.69 29.32 57.69 29.36 55.59C29.36 55.37 29.36 55.16 29.37 54.94C29.4 52.6 29.44 50.24 29.42 48.94C29.38 45.45 28.99 43.13 28.46 41.66C27.92 40.18 27.26 39.59 26.7 39.44L26.54 39.39L26.28 37.07L24.88 39.94L24.64 39.75C21.3 37.17 20.55 34.84 20.84 32.92C21.08 31.36 22 30.1 22.6 29.28Z" fill="#000000" fill-opacity="1.000000" fill-rule="evenodd"/>
	<path id="Vector 90 (Stroke)" d="M36.99 29.48C36.85 29.29 36.72 29.12 36.62 28.97L36.17 29.1C36.17 29.61 35.92 30.11 35.47 30.65C35.02 31.18 34.39 31.72 33.69 32.29C33.51 32.43 33.34 32.58 33.15 32.72C31.88 33.74 30.46 34.88 29.56 36.24L29.97 36.51C30.83 35.22 32.18 34.14 33.46 33.11C33.64 32.96 33.82 32.82 34 32.67C34.71 32.1 35.37 31.54 35.85 30.96C36.18 30.57 36.44 30.17 36.57 29.73C36.58 29.75 36.59 29.76 36.6 29.78C36.64 29.83 36.68 29.89 36.73 29.95C36.92 30.21 37.13 30.5 37.33 30.82C37.73 31.45 38.08 32.18 38.2 33.01C38.44 34.6 37.85 36.64 34.8 39.07L32.92 35.23L32.51 38.91C31.8 39.17 31.05 39.91 30.53 41.29L31 41.46C31.52 40.06 32.25 39.48 32.8 39.33L32.96 39.29L33.22 36.97L34.63 39.83L34.87 39.65C38.21 37.07 38.97 34.81 38.69 32.94C38.55 32.02 38.16 31.22 37.75 30.56C37.54 30.23 37.32 29.92 37.13 29.66C37.08 29.6 37.03 29.54 36.99 29.48Z" fill="#000000" fill-opacity="1.000000" fill-rule="evenodd"/>
	<path id="Vector 78" d="M37.91 14.26C38.39 14.15 39.32 14.19 39.24 15.2C39.13 16.46 38.9 16.94 38.8 18.17C38.69 19.41 38.15 19.58 37.54 19.6C37.05 19.61 37.58 16.04 37.91 14.26Z" fill="#F8AF78" fill-opacity="1.000000" fill-rule="evenodd"/>
	<path id="Vector 79 (Stroke)" d="M38.89 14.09C38.54 13.93 38.13 13.96 37.86 14.02L37.7 14.05L37.67 14.21C37.51 15.11 37.29 16.46 37.17 17.58C37.12 18.14 37.08 18.65 37.1 19.03C37.1 19.22 37.12 19.39 37.16 19.52C37.18 19.59 37.22 19.66 37.27 19.72C37.33 19.79 37.43 19.85 37.54 19.84C37.86 19.83 38.23 19.78 38.52 19.53C38.81 19.27 38.99 18.84 39.04 18.19C39.09 17.59 39.18 17.18 39.26 16.75L39.26 16.74C39.34 16.31 39.43 15.86 39.48 15.22C39.51 14.93 39.46 14.69 39.35 14.49C39.23 14.29 39.07 14.16 38.89 14.09ZM38.92 14.74C38.97 14.83 39.01 14.97 38.99 15.18C38.94 15.79 38.86 16.22 38.78 16.65L38.77 16.66C38.69 17.09 38.6 17.53 38.55 18.15C38.5 18.74 38.35 19.02 38.19 19.16C38.05 19.28 37.87 19.33 37.63 19.35C37.61 19.28 37.59 19.17 37.59 19.01C37.58 18.67 37.61 18.18 37.66 17.63C37.77 16.59 37.97 15.36 38.13 14.47C38.31 14.45 38.52 14.46 38.69 14.54C38.79 14.58 38.87 14.65 38.92 14.74Z" fill="#000000" fill-opacity="1.000000" fill-rule="evenodd"/>
	<path id="Vector 78" d="M19.82 15.25C19.74 14.24 20.67 14.2 21.14 14.31C21.47 16.09 22.01 19.66 21.52 19.65C20.91 19.63 20.37 19.46 20.26 18.22C20.16 16.99 19.92 16.51 19.82 15.25Z" fill="#F8AF78" fill-opacity="1.000000" fill-rule="nonzero"/>
	<path id="Vector 79 (Stroke)" d="M20.17 14.14C20.52 13.98 20.93 14.01 21.2 14.07L21.36 14.1L21.39 14.26C21.55 15.16 21.77 16.51 21.89 17.63C21.94 18.19 21.98 18.7 21.96 19.08C21.96 19.27 21.94 19.44 21.9 19.57C21.87 19.63 21.84 19.71 21.79 19.77C21.73 19.84 21.63 19.9 21.51 19.89C21.2 19.88 20.83 19.83 20.54 19.57C20.24 19.32 20.07 18.89 20.02 18.24C19.96 17.64 19.88 17.23 19.8 16.8L19.8 16.79C19.71 16.36 19.63 15.91 19.57 15.27C19.55 14.98 19.6 14.74 19.71 14.54C19.82 14.34 19.99 14.21 20.17 14.14ZM20.14 14.78C20.09 14.88 20.05 15.01 20.07 15.23C20.12 15.84 20.2 16.27 20.28 16.7L20.28 16.71C20.37 17.14 20.45 17.58 20.51 18.2C20.56 18.79 20.71 19.07 20.87 19.21C21.01 19.33 21.19 19.38 21.43 19.4C21.45 19.33 21.46 19.22 21.47 19.06C21.48 18.72 21.45 18.23 21.39 17.68C21.29 16.64 21.09 15.4 20.93 14.52C20.75 14.5 20.54 14.51 20.37 14.59C20.27 14.63 20.19 14.69 20.14 14.78Z" fill="#000000" fill-opacity="1.000000" fill-rule="evenodd"/>
	<path id="Vector 91" d="M20.66 12.59C20.51 10.39 20.51 6.7 21.52 3.71C21.52 4.01 21.52 4.7 21.52 5.09C21.63 4.21 22.31 2.26 24.21 1.44C26.59 0.42 30.16 -0.76 33.23 0.63C32.77 0.53 31.56 0.36 30.43 0.48C31.07 0.49 32.64 0.63 33.8 1.04C35.25 1.57 36.09 2.74 36.24 4.38C37.16 4.35 38.97 5.16 38.78 8.54C38.68 7.95 38.34 6.64 37.77 6.16C38.06 6.88 38.63 8.82 38.63 10.87C38.63 13.42 38.02 20.86 37.86 23.21C37.69 25.55 34.91 29.24 29.66 29.83C27.15 29.47 21.86 27.66 21.35 23.21C21.35 23.21 21.16 15.35 20.66 12.59Z" fill="#000000" fill-opacity="1.000000" fill-rule="evenodd"/>
	<path id="Vector 92" d="M21.51 16.13C21.38 13.66 21.54 8.34 23.19 6.87C25.25 5.02 24.91 6.62 29.37 6.74C32.93 6.84 34.58 6.23 34.96 5.9C35.58 5.93 36.92 6.6 37.34 9.07C37.86 12.15 37.95 17.34 37.63 18.91C37.32 20.48 36.05 22.87 34.67 22.43C33.28 21.99 32.96 20.97 31.81 20.86C31.72 21 31.42 21.24 30.88 21.07C30.53 21.22 29.62 21.42 28.76 21.07C28.51 21.15 27.96 21.21 27.81 20.86C27.24 21.01 26.16 21.4 25.42 22.29C24.9 22.63 23.37 22.7 22.51 20.61C21.66 18.52 21.51 16.83 21.51 16.13Z" fill="#F8AF78" fill-opacity="1.000000" fill-rule="evenodd"/>
	<path id="Vector 70" d="M22.29 11.56C22.34 11.78 22.49 12.11 22.75 12.2C22.77 12.2 22.78 12.21 22.8 12.21C23.05 12.13 25.33 11.11 27 12.17C27.04 12.19 27.09 12.2 27.13 12.18C27.38 12.05 27.76 11.73 27.72 11.22C27.72 11.17 27.69 11.13 27.65 11.11C26.62 10.65 24.25 10.13 22.34 11.43C22.3 11.46 22.28 11.51 22.29 11.56Z" fill="#000000" fill-opacity="1.000000" fill-rule="evenodd"/>
	<path id="Vector 71" d="M37.06 11.57C37.01 11.78 36.86 12.11 36.6 12.21C36.58 12.21 36.57 12.21 36.56 12.21C36.3 12.14 34.03 11.11 32.35 12.18C32.31 12.2 32.26 12.21 32.22 12.19C31.97 12.06 31.59 11.74 31.63 11.22C31.63 11.18 31.66 11.14 31.7 11.12C32.73 10.66 35.1 10.14 37.01 11.44C37.05 11.47 37.08 11.52 37.06 11.57Z" fill="#000000" fill-opacity="1.000000" fill-rule="evenodd"/>
	<path id="Subtract" d="M20.0682 14.1421L20.0682 12.7175C20.9302 12.5361 23.2555 12.2275 25.6605 12.4453C28.667 12.7175 27.6998 13.1365 29.6552 13.1365C31.6104 13.1365 30.6432 12.7175 33.6497 12.4453C36.0547 12.2275 38.38 12.5361 39.2419 12.7175L39.2419 14.1421C38.9896 14.4143 38.4598 15.0679 38.359 15.5037C38.2328 16.0483 37.6652 18.3315 34.0281 18.1431C33.166 18.1221 31.3328 17.8037 30.8955 16.6978C30.3489 15.3152 30.2017 14.582 29.6552 14.561C29.1085 14.582 28.9613 15.3152 28.4147 16.6978C27.9774 17.8037 26.1442 18.1221 25.2821 18.1431C21.645 18.3315 21.0774 16.0483 20.9513 15.5037C20.8503 15.0679 20.3206 14.4143 20.0682 14.1421ZM21.561 13.9751C21.491 14.2893 21.3929 14.9429 21.561 15.7136C21.7714 16.6772 22.0236 17.5989 24.6305 17.7874C27.2375 17.9761 27.8052 16.9915 28.2256 15.7136C28.6461 14.4358 28.2124 13.127 26.4806 13.0325C26.3036 13.0227 26.1077 13.0088 25.8992 12.9941C24.2999 12.8811 21.9517 12.7148 21.561 13.9751ZM37.8267 15.7136C37.9948 14.9429 37.8967 14.2893 37.8267 13.9751C37.436 12.7148 35.0876 12.8811 33.4885 12.9941C33.2799 13.0088 33.0841 13.0227 32.907 13.0325C31.1753 13.127 30.7416 14.4358 31.1621 15.7136C31.5825 16.9915 32.1501 17.9761 34.7571 17.7874C37.3641 17.5989 37.6163 16.6772 37.8267 15.7136Z" clip-rule="evenodd" fill="#000000" fill-opacity="1.000000" fill-rule="evenodd"/>
	<path id="Vector 74" d="" fill="#F9B87C" fill-opacity="1.000000" fill-rule="nonzero"/>
	<path id="Vector 75" d="M29.65 23.18C29.36 23.18 28.39 23.13 27.08 22.82C27.05 22.82 27.02 22.84 27.02 22.87C27.06 23.62 27.74 25.03 29.65 25.03C31.57 25.03 32.24 23.61 32.28 22.86C32.28 22.84 32.26 22.82 32.23 22.82C30.92 23.13 29.94 23.18 29.65 23.18Z" fill="#FF1010" fill-opacity="1.000000" fill-rule="evenodd"/>
	<path id="Vector 76" d="M29.65 23.18C29.36 23.18 28.39 23.13 27.08 22.82C27.05 22.82 27.02 22.84 27.02 22.87C27.03 23.07 27.09 23.32 27.2 23.57L27.22 23.59C27.44 23.71 28.2 23.94 29.65 23.94C31.1 23.94 31.87 23.71 32.08 23.59L32.1 23.57C32.21 23.31 32.27 23.06 32.28 22.86C32.28 22.84 32.26 22.82 32.23 22.82C30.92 23.13 29.94 23.18 29.65 23.18Z" fill="#FFFFFF" fill-opacity="1.000000" fill-rule="evenodd"/>
	<ellipse id="Ellipse 14" cx="25.029297" cy="14.960205" rx="0.861976" ry="0.858851" fill="#000000" fill-opacity="1.000000"/>
	<ellipse id="Ellipse 15" cx="25.260620" cy="14.771240" rx="0.294333" ry="0.293605" fill="#FFFFFF" fill-opacity="1.000000"/>
	<ellipse id="Ellipse 14" cx="34.321899" cy="14.959229" rx="0.861976" ry="0.858851" fill="#000000" fill-opacity="1.000000"/>
	<ellipse id="Ellipse 15" cx="34.553101" cy="14.771240" rx="0.294333" ry="0.293605" fill="#FFFFFF" fill-opacity="1.000000"/>
	<path id="Rectangle 16" d="M39.26 62.73L40.57 68.73C40.7 69.29 40.27 69.83 39.69 69.83L20.72 69.83C20.14 69.83 19.71 69.31 19.83 68.75L21.02 62.74C21.11 62.32 21.48 62.01 21.91 62.01L38.37 62.01C38.8 62.01 39.16 62.31 39.26 62.73Z" fill="#000000" fill-opacity="1.000000" fill-rule="nonzero"/>
	<path id="Rectangle 17" d="M38.85 62.97L40.11 68.68C40.17 68.96 39.96 69.22 39.68 69.22L20.89 69.22C20.61 69.22 20.4 68.96 20.46 68.69L21.61 62.98C21.65 62.77 21.83 62.63 22.04 62.63L38.42 62.63C38.63 62.63 38.81 62.77 38.85 62.97Z" fill="#FFFFFF" fill-opacity="1.000000" fill-rule="nonzero"/>
	<path id="Rectangle 18" d="M37.4 63.12L38.56 68.54C38.6 68.71 38.46 68.88 38.28 68.88L22.89 68.88C22.71 68.88 22.58 68.72 22.61 68.54L23.71 63.12C23.74 62.99 23.85 62.89 23.99 62.89L37.12 62.89C37.26 62.89 37.37 62.99 37.4 63.12Z" fill="#000000" fill-opacity="1.000000" fill-rule="nonzero"/>
	<path id="Rectangle 19" d="M22.1 65.11C22.32 65.11 22.5 65.29 22.5 65.51C22.5 65.73 22.32 65.91 22.1 65.91L22.1 65.91C21.88 65.91 21.7 65.73 21.7 65.51C21.7 65.29 21.88 65.11 22.1 65.11L22.1 65.11Z" fill="#000000" fill-opacity="1.000000" fill-rule="nonzero"/>
	<path id="Arron" d="M170.07 36.72Q168.32 38.43 166.23 39.4Q163.44 40.71 160.02 40.71Q156.66 40.71 153.88 39.44Q151.74 38.46 149.94 36.72C147.22 34.03 145.86 30.72 145.86 26.79C145.86 22.86 147.22 19.56 149.94 16.9Q151.77 15.11 153.96 14.11L153.96 14.11Q156.71 12.87 160.02 12.87Q163.38 12.87 166.15 14.15L166.15 14.15Q168.28 15.14 170.07 16.9Q171.95 18.72 172.97 20.94Q174.19 23.58 174.19 26.79Q174.19 29.95 173 32.58Q171.98 34.85 170.07 36.72ZM108.66 40.07L104.42 31.7L102.51 31.7L102.51 40.07L94.88 40.07L94.88 13.44L105.57 13.44C108.49 13.44 110.91 14.3 112.82 16.02Q113.85 16.93 114.5 18.06Q115.69 20.08 115.69 22.79C115.69 24.37 115.32 25.79 114.58 27.06Q114.22 27.7 113.76 28.26L113.76 28.26Q112.85 29.36 111.56 30.14L116.83 40.07L108.66 40.07ZM130.58 31.7L134.82 40.07L142.99 40.07L137.72 30.14C139.02 29.35 140.02 28.32 140.73 27.06C141.47 25.79 141.84 24.37 141.84 22.79C141.84 19.98 140.89 17.72 138.98 16.02Q138.24 15.36 137.4 14.86L137.4 14.86Q134.99 13.44 131.72 13.44L121.03 13.44L121.03 40.07L128.67 40.07L128.67 31.7L130.58 31.7ZM82.84 40.1L81.93 36.68L74.21 36.68L73.3 40.1L65.09 40.1L73.6 13.47L82.54 13.47L91.05 40.1L82.84 40.1ZM201.49 13.47L193.85 13.47L193.85 25.65L185.45 13.47L179.34 13.47L179.34 40.1L186.98 40.1L186.98 27.93L195.38 40.1L201.49 40.1L201.49 13.47ZM155.33 31.43C156.58 32.65 158.14 33.26 160.02 33.26C161.91 33.26 163.46 32.65 164.68 31.43C165.93 30.19 166.55 28.64 166.55 26.79C166.55 24.94 165.93 23.4 164.68 22.19C163.46 20.94 161.91 20.32 160.02 20.32C158.14 20.32 156.58 20.94 155.33 22.19Q154.63 22.88 154.2 23.71Q153.5 25.07 153.5 26.79Q153.5 28.47 154.17 29.81Q154.6 30.69 155.33 31.43ZM102.51 20.44L102.51 25.38L105.41 25.38Q106.51 25.42 107.18 24.9Q107.25 24.84 107.32 24.77C107.81 24.34 108.05 23.73 108.05 22.95C108.05 22.16 107.81 21.55 107.32 21.12Q107.23 21.03 107.13 20.95Q106.47 20.44 105.41 20.44L102.51 20.44ZM128.67 25.38L128.67 20.44L131.57 20.44C132.38 20.44 133.02 20.66 133.48 21.12Q133.64 21.27 133.77 21.44Q134.2 22.03 134.2 22.95C134.2 23.73 133.96 24.34 133.48 24.77C133.02 25.2 132.38 25.41 131.57 25.38L128.67 25.38ZM75.85 30.59L80.28 30.59L78.07 22.41L75.85 30.59Z" fill="#E2001A" fill-opacity="1.000000" fill-rule="evenodd"/>
	<rect id="Rectangle 31" x="65.079102" y="45.100586" rx="5.975508" width="136.420990" height="11.951016" fill="#276CAA" fill-opacity="1.000000"/>
	<path id="service center" d="M77.28 54.3C76.67 54.3 76.15 54.16 75.72 53.88Q75.42 53.68 75.2 53.41Q74.96 53.12 74.83 52.74L75.73 52.21Q75.9 52.7 76.25 52.97Q76.66 53.28 77.31 53.28C77.7 53.28 78 53.21 78.19 53.06Q78.35 52.93 78.43 52.77Q78.49 52.62 78.49 52.45C78.49 52.19 78.39 51.99 78.17 51.86C77.96 51.72 77.59 51.57 77.05 51.41Q76.59 51.27 76.31 51.15C76.12 51.08 75.92 50.97 75.71 50.83Q75.47 50.66 75.32 50.43Q75.28 50.37 75.25 50.29Q75.09 49.98 75.09 49.55Q75.09 49.03 75.32 48.65Q75.46 48.41 75.69 48.22Q75.89 48.06 76.11 47.95L76.11 47.95Q76.57 47.72 77.14 47.72Q77.78 47.72 78.28 47.98Q78.38 48.03 78.47 48.09Q78.65 48.21 78.81 48.35Q79.14 48.67 79.36 49.12L78.47 49.62Q78.26 49.15 77.89 48.93Q77.57 48.74 77.14 48.74Q76.68 48.74 76.41 48.95Q76.29 49.04 76.23 49.16Q76.14 49.32 76.14 49.52C76.14 49.76 76.23 49.95 76.41 50.09Q76.69 50.29 77.42 50.51C77.66 50.59 77.84 50.65 77.95 50.69C78.06 50.73 78.22 50.79 78.42 50.87C78.62 50.96 78.78 51.04 78.88 51.13C78.99 51.21 79.09 51.32 79.21 51.44C79.33 51.57 79.42 51.72 79.46 51.88C79.51 52.04 79.54 52.23 79.54 52.43Q79.54 52.94 79.32 53.32L79.32 53.32Q79.17 53.59 78.91 53.8Q78.9 53.81 78.89 53.82Q78.28 54.3 77.28 54.3ZM119.97 54.3C119.01 54.3 118.22 53.98 117.59 53.36C116.96 52.72 116.64 51.94 116.64 51.01C116.64 50.08 116.96 49.3 117.59 48.67C118.22 48.04 119.01 47.72 119.97 47.72C120.55 47.72 121.08 47.86 121.56 48.13Q122.04 48.39 122.37 48.77Q122.56 48.99 122.71 49.23L121.8 49.76C121.63 49.45 121.38 49.2 121.05 49.02C120.73 48.83 120.37 48.74 119.97 48.74C119.29 48.74 118.74 48.95 118.32 49.38Q118.11 49.6 117.97 49.85Q117.69 50.35 117.69 51.01Q117.69 51.67 117.97 52.17Q118.11 52.42 118.32 52.64C118.74 53.07 119.29 53.28 119.97 53.28C120.37 53.28 120.74 53.19 121.06 53.01C121.39 52.82 121.64 52.57 121.8 52.26L122.71 52.78C122.44 53.24 122.06 53.61 121.57 53.89Q121.34 54.02 121.09 54.11Q120.56 54.3 119.97 54.3ZM144.59 54.3C143.63 54.3 142.84 53.98 142.21 53.36C141.58 52.72 141.26 51.94 141.26 51.01C141.26 50.08 141.58 49.3 142.21 48.67C142.84 48.04 143.63 47.72 144.59 47.72C145.16 47.72 145.69 47.86 146.18 48.13Q146.65 48.39 146.99 48.77L146.99 48.77Q147.18 48.99 147.33 49.23L146.42 49.76Q146.33 49.59 146.21 49.45Q145.99 49.19 145.67 49.02C145.35 48.83 144.99 48.74 144.59 48.74C143.91 48.74 143.36 48.95 142.93 49.38C142.52 49.81 142.31 50.35 142.31 51.01C142.31 51.67 142.52 52.21 142.93 52.64C143.36 53.07 143.91 53.28 144.59 53.28C144.99 53.28 145.35 53.19 145.68 53.01C146.01 52.82 146.25 52.57 146.42 52.26L147.33 52.78C147.06 53.24 146.68 53.61 146.19 53.89C145.7 54.16 145.17 54.3 144.59 54.3ZM85.08 53.18L87.89 53.18L87.89 54.18L84.03 54.18L84.03 47.84L87.85 47.84L87.85 48.84L85.08 48.84L85.08 50.48L87.62 50.48L87.62 51.47L85.08 51.47L85.08 53.18ZM96.11 54.18L94.77 51.87L93.53 51.87L93.53 54.18L92.49 54.18L92.49 47.84L95.03 47.84C95.6 47.84 96.08 48.04 96.48 48.44Q96.77 48.72 96.92 49.06Q97.08 49.43 97.08 49.88C97.08 50.28 96.96 50.65 96.72 50.99C96.49 51.32 96.19 51.57 95.81 51.72L97.26 54.18L96.11 54.18ZM103.23 54.18L101.02 47.84L102.17 47.84L103.86 52.92L105.56 47.84L106.69 47.84L104.48 54.18L103.23 54.18ZM111.01 47.84L112.05 47.84L112.05 54.18L111.01 54.18L111.01 47.84ZM128.26 53.18L131.08 53.18L131.08 54.18L127.21 54.18L127.21 47.84L131.03 47.84L131.03 48.84L128.26 48.84L128.26 50.48L130.8 50.48L130.8 51.47L128.26 51.47L128.26 53.18ZM152.88 53.18L155.69 53.18L155.69 54.18L151.83 54.18L151.83 47.84L155.65 47.84L155.65 48.84L152.88 48.84L152.88 50.48L155.42 50.48L155.42 51.47L152.88 51.47L152.88 53.18ZM164.11 47.84L165.15 47.84L165.15 54.18L164.33 54.18L161.33 49.88L161.33 54.18L160.29 54.18L160.29 47.84L161.11 47.84L164.11 52.14L164.11 47.84ZM174.19 47.84L174.19 48.84L172.4 48.84L172.4 54.18L171.36 54.18L171.36 48.84L169.56 48.84L169.56 47.84L174.19 47.84ZM179.65 53.18L182.47 53.18L182.47 54.18L178.6 54.18L178.6 47.84L182.42 47.84L182.42 48.84L179.65 48.84L179.65 50.48L182.2 50.48L182.2 51.47L179.65 51.47L179.65 53.18ZM190.69 54.18L189.34 51.87L188.11 51.87L188.11 54.18L187.06 54.18L187.06 47.84L189.61 47.84C190.18 47.84 190.66 48.04 191.05 48.44Q191.34 48.72 191.49 49.06Q191.65 49.43 191.65 49.88C191.65 50.28 191.53 50.65 191.3 50.99C191.07 51.32 190.76 51.57 190.39 51.72L191.83 54.18L190.69 54.18ZM93.53 48.82L93.53 50.94L95.03 50.94C95.31 50.94 95.55 50.83 95.74 50.63Q95.86 50.5 95.93 50.35Q96.03 50.14 96.03 49.88Q96.03 49.62 95.93 49.4Q95.86 49.25 95.74 49.13C95.55 48.92 95.31 48.82 95.03 48.82L93.53 48.82ZM188.11 48.82L188.11 50.94L189.61 50.94C189.89 50.94 190.12 50.83 190.32 50.63C190.51 50.42 190.61 50.17 190.61 49.88C190.61 49.58 190.51 49.33 190.32 49.13C190.12 48.92 189.89 48.82 189.61 48.82L188.11 48.82Z" fill="#FFFFFF" fill-opacity="1.000000" fill-rule="evenodd"/>
	<path id="Toti repara la noi" d="M79.95 68.88Q80.66 68.56 81.25 67.97Q81.87 67.34 82.19 66.6Q82.53 65.81 82.53 64.88Q82.53 63.91 82.17 63.1Q81.85 62.39 81.25 61.8Q80.66 61.2 79.95 60.88Q79.14 60.53 78.17 60.53Q77.2 60.53 76.39 60.88Q75.68 61.2 75.09 61.8Q74.51 62.38 74.19 63.08Q73.83 63.9 73.83 64.88Q73.83 65.82 74.17 66.62Q74.48 67.36 75.09 67.97Q75.68 68.56 76.39 68.88Q77.2 69.24 78.17 69.24Q79.14 69.24 79.95 68.88ZM193.68 68.88Q194.4 68.56 194.99 67.97C195.84 67.12 196.26 66.09 196.26 64.88C196.26 63.67 195.84 62.64 194.99 61.8Q194.4 61.2 193.68 60.88Q192.87 60.53 191.9 60.53Q190.93 60.53 190.12 60.88Q189.41 61.2 188.82 61.8C187.98 62.64 187.56 63.67 187.56 64.88C187.56 66.09 187.98 67.12 188.82 67.97Q189.41 68.56 190.12 68.88Q190.93 69.24 191.9 69.24Q192.87 69.24 193.68 68.88ZM72.21 61.74L72.21 60.68L66.15 60.68L66.15 61.74L68.62 61.74L68.62 69.08L69.72 69.08L69.72 61.74L72.21 61.74ZM90.2 61.74L90.2 60.68L84.14 60.68L84.14 61.74L86.62 61.74L86.62 69.08L87.72 69.08L87.72 61.74L90.2 61.74ZM93.86 60.68L92.75 60.68L92.75 69.08L93.86 69.08L93.86 60.68ZM104.64 65.87L106.53 69.08L107.76 69.08L105.78 65.72C106.29 65.54 106.71 65.22 107.03 64.77C107.36 64.33 107.52 63.83 107.52 63.29Q107.52 62.74 107.33 62.28Q107.14 61.82 106.75 61.45C106.24 60.94 105.63 60.68 104.91 60.68L101.55 60.68L101.55 69.08L102.66 69.08L102.66 65.87L104.64 65.87ZM115.34 68.03L111.44 68.03L111.44 65.36L114.98 65.36L114.98 64.32L111.44 64.32L111.44 61.74L115.28 61.74L115.28 60.68L110.32 60.68L110.32 69.08L115.34 69.08L115.34 68.03ZM123.11 61.46C122.59 60.94 121.95 60.68 121.17 60.68L118.13 60.68L118.13 69.08L119.24 69.08L119.24 66.08L121.17 66.08C121.95 66.08 122.59 65.82 123.11 65.3C123.63 64.78 123.89 64.14 123.89 63.38C123.89 62.61 123.63 61.97 123.11 61.46ZM130.64 67.2L131.32 69.08L132.51 69.08L129.38 60.68L128.12 60.68L124.98 69.08L126.17 69.08L126.86 67.2L130.64 67.2ZM138.03 65.87L139.92 69.08L141.16 69.08L139.17 65.72C139.69 65.54 140.1 65.22 140.42 64.77C140.75 64.33 140.92 63.83 140.92 63.29C140.92 62.57 140.66 61.95 140.15 61.45C139.64 60.94 139.02 60.68 138.3 60.68L134.94 60.68L134.94 69.08L136.06 69.08L136.06 65.87L138.03 65.87ZM148.56 67.2L149.25 69.08L150.44 69.08L147.3 60.68L146.04 60.68L142.91 69.08L144.1 69.08L144.78 67.2L148.56 67.2ZM162.05 68.03L158.42 68.03L158.42 60.68L157.31 60.68L157.31 69.08L162.05 69.08L162.05 68.03ZM169.69 67.2L170.37 69.08L171.56 69.08L168.43 60.68L167.17 60.68L164.04 69.08L165.22 69.08L165.91 67.2L169.69 67.2ZM184.77 60.68L183.65 60.68L183.65 66.94L179.33 60.68L178.43 60.68L178.43 69.08L179.55 69.08L179.55 62.81L183.87 69.08L184.77 69.08L184.77 60.68ZM200.16 60.68L199.04 60.68L199.04 69.08L200.16 69.08L200.16 60.68ZM76.74 67.84Q76.26 67.61 75.85 67.21Q75.46 66.8 75.23 66.32Q74.93 65.67 74.93 64.88Q74.93 64.05 75.26 63.38Q75.48 62.93 75.85 62.55Q76.27 62.14 76.77 61.9Q77.4 61.61 78.17 61.61Q78.96 61.61 79.59 61.91Q80.08 62.14 80.47 62.55C81.1 63.18 81.41 63.95 81.41 64.88Q81.41 65.66 81.12 66.29Q80.89 66.79 80.47 67.21C79.86 67.83 79.09 68.15 78.17 68.15Q77.38 68.15 76.74 67.84ZM191.9 68.15C190.98 68.15 190.21 67.83 189.59 67.21C188.97 66.58 188.66 65.8 188.66 64.88C188.66 63.95 188.97 63.18 189.59 62.55C190.21 61.92 190.98 61.61 191.9 61.61C192.82 61.61 193.59 61.92 194.21 62.55Q194.6 62.94 194.82 63.41Q195.14 64.07 195.14 64.88Q195.14 65.66 194.85 66.29Q194.62 66.79 194.21 67.21C193.59 67.83 192.82 68.15 191.9 68.15ZM102.66 64.86L102.66 61.73L104.91 61.73C105.32 61.73 105.67 61.88 105.96 62.18C106.26 62.49 106.41 62.85 106.41 63.29C106.41 63.72 106.26 64.09 105.96 64.4C105.67 64.71 105.32 64.86 104.91 64.86L102.66 64.86ZM122.33 64.57C122.02 64.88 121.64 65.04 121.17 65.04L119.24 65.04L119.24 61.73L121.17 61.73C121.64 61.73 122.02 61.88 122.33 62.19Q122.48 62.35 122.58 62.53Q122.78 62.9 122.78 63.38Q122.78 63.82 122.61 64.17Q122.5 64.39 122.33 64.57ZM136.06 64.86L136.06 61.73L138.3 61.73C138.72 61.73 139.07 61.88 139.36 62.18C139.65 62.49 139.8 62.85 139.8 63.29C139.8 63.72 139.65 64.09 139.36 64.4C139.07 64.71 138.72 64.86 138.3 64.86L136.06 64.86ZM130.25 66.15L127.24 66.15L128.74 62.01L130.25 66.15ZM148.18 66.15L145.17 66.15L146.67 62.01L148.18 66.15ZM169.3 66.15L166.29 66.15L167.79 62.01L169.3 66.15Z" fill="#276CAA" fill-opacity="1.000000" fill-rule="evenodd"/>
</svg>
