<svg width="80.000000" height="80.000000" viewBox="0 0 80 80" fill="none" xmlns="http://www.w3.org/2000/svg" xmlns:xlink="http://www.w3.org/1999/xlink">
	<desc>
			Created with Pixso.
	</desc>
	<defs>
		<clipPath id="clip1_461">
			<rect id="payment done.@ui8_bot" width="80.000000" height="80.000000" transform="translate(0.000000 -0.707520)" fill="white" fill-opacity="0"/>
		</clipPath>
	</defs>
	<rect id="payment done.@ui8_bot" width="80.000000" height="80.000000" transform="translate(0.000000 -0.707520)" fill="#FFFFFF" fill-opacity="0"/>
	<g clip-path="url(#clip1_461)">
		<path id="Vector" d="M12 15.29L64 15.29C68.41 15.29 72 18.87 72 23.29L72 55.29C72 59.71 68.41 63.29 64 63.29L12 63.29C7.58 63.29 4 59.71 4 55.29L4 23.29C4 18.87 7.58 15.29 12 15.29Z" fill="#3D8AFF" fill-opacity="1.000000" fill-rule="evenodd"/>
		<path id="Vector" d="M4 23.29L72 23.29L72 31.29L4 31.29L4 23.29Z" fill="#005AAA" fill-opacity="1.000000" fill-rule="evenodd"/>
		<path id="Vector" d="M16 47.58L24 47.58C26.2 47.58 28 49.37 28 51.58C28 53.78 26.2 55.58 24 55.58L16 55.58C13.79 55.58 12 53.78 12 51.58C12 49.37 13.79 47.58 16 47.58Z" fill="#FFD66B" fill-opacity="1.000000" fill-rule="evenodd"/>
		<path id="Vector" d="M76 63.29C76 69.91 70.62 75.29 64 75.29C57.37 75.29 52 69.91 52 63.29C52 56.66 57.37 51.29 64 51.29C70.62 51.29 76 56.66 76 63.29Z" fill="#FFD66B" fill-opacity="1.000000" fill-rule="evenodd"/>
		<path id="Vector" d="M60 63.29L62.83 66.12L68.48 60.46" stroke="#FFFFFF" stroke-opacity="1.000000" stroke-width="2.000000" stroke-linejoin="round" stroke-linecap="round"/>
	</g>
</svg>
