<svg width="56.003662" height="56.000000" viewBox="0 0 56.0037 56" fill="none" xmlns="http://www.w3.org/2000/svg" xmlns:xlink="http://www.w3.org/1999/xlink">
	<desc>
			Created with Pixso.
	</desc>
	<defs>
		<clipPath id="clip1_100">
			<rect id="phone-call" width="32.000000" height="32.000000" transform="translate(12.003662 12.000000)" fill="white" fill-opacity="0"/>
		</clipPath>
	</defs>
	<g opacity="0.100000">
		<path id="Ellipse 134" d="M28 37.67C28 47.79 18.98 56.37 10.96 50.2C5.87 46.31 2.49 41 0.96 35.24C-0.71 29.05 -0.15 22.78 2.14 17.28C4.58 11.36 8.84 6.72 14 3.75C19.55 0.54 25.75 -0.54 31.65 0.24C41.69 1.55 42 14 34.84 21.16L33.8 22.2C30.08 25.91 28 30.95 28 36.2L28 37.67Z" fill="#005AAA" fill-opacity="1.000000" fill-rule="evenodd"/>
	</g>
	<rect id="phone-call" width="32.000000" height="32.000000" transform="translate(12.003662 12.000000)" fill="#FFFFFF" fill-opacity="0"/>
	<g clip-path="url(#clip1_100)">
		<path id="Vector" d="M41.33 34.56L41.33 38.56C41.33 38.93 41.26 39.29 41.11 39.63C40.96 39.97 40.74 40.28 40.47 40.53C40.19 40.78 39.87 40.97 39.52 41.09C39.17 41.21 38.8 41.26 38.43 41.22C34.32 40.78 30.38 39.37 26.92 37.13C23.7 35.08 20.97 32.35 18.92 29.13C16.67 25.65 15.26 21.69 14.83 17.57C14.79 17.2 14.84 16.83 14.95 16.48C15.07 16.13 15.26 15.8 15.51 15.53C15.76 15.26 16.07 15.04 16.4 14.89C16.74 14.74 17.11 14.66 17.48 14.66L21.48 14.66C22.13 14.66 22.75 14.88 23.24 15.31C23.73 15.73 24.05 16.31 24.15 16.95C24.31 18.24 24.63 19.49 25.08 20.7C25.26 21.18 25.3 21.7 25.19 22.2C25.08 22.69 24.84 23.15 24.48 23.52L22.79 25.21C24.68 28.55 27.45 31.31 30.79 33.21L32.48 31.52C32.84 31.16 33.3 30.91 33.8 30.8C34.3 30.7 34.81 30.74 35.29 30.91C36.5 31.37 37.76 31.68 39.04 31.85C39.69 31.94 40.28 32.27 40.7 32.77C41.12 33.26 41.35 33.9 41.33 34.56Z" fill="#005AAA" fill-opacity="1.000000" fill-rule="nonzero"/>
		<path id="Vector" d="M32.07 18.66C33.37 18.92 34.56 19.55 35.5 20.49C36.44 21.43 37.08 22.63 37.33 23.93M32.07 13.33C34.77 13.63 37.29 14.84 39.22 16.76C41.15 18.69 42.36 21.21 42.67 23.92" stroke="#FFD66B" stroke-opacity="1.000000" stroke-width="2.000000" stroke-linejoin="round"/>
	</g>
</svg>
