<svg width="48.000000" height="48.000000" viewBox="0 0 48 48" fill="none" xmlns="http://www.w3.org/2000/svg" xmlns:xlink="http://www.w3.org/1999/xlink">
	<desc>
			Created with Pixso.
	</desc>
	<defs>
		<clipPath id="clip1_8">
			<rect id="phone-call" rx="15.000000" width="48.000000" height="48.000000" transform="translate(-0.499512 0.000000)" fill="white" fill-opacity="0"/>
		</clipPath>
	</defs>
	<rect id="phone-call" rx="15.000000" width="48.000000" height="48.000000" transform="translate(-0.499512 0.000000)" fill="#E2001A" fill-opacity="0.100000"/>
	<g clip-path="url(#clip1_8)">
		<path id="Vector" d="M30.73 28.17L30.73 30.46C30.73 30.67 30.69 30.88 30.6 31.08C30.52 31.27 30.39 31.45 30.23 31.59C30.08 31.74 29.89 31.85 29.69 31.91C29.49 31.98 29.27 32.01 29.06 31.99C26.7 31.73 24.44 30.93 22.45 29.64C20.6 28.47 19.03 26.9 17.85 25.05C16.56 23.06 15.75 20.79 15.5 18.43C15.48 18.21 15.51 18 15.58 17.8C15.64 17.6 15.75 17.41 15.9 17.26C16.04 17.1 16.21 16.98 16.41 16.89C16.6 16.8 16.81 16.76 17.03 16.76L19.32 16.76C19.7 16.76 20.06 16.89 20.34 17.13C20.62 17.37 20.8 17.71 20.86 18.07C20.95 18.81 21.13 19.53 21.39 20.22C21.5 20.5 21.52 20.79 21.46 21.08C21.4 21.37 21.25 21.63 21.05 21.84L20.07 22.81C21.17 24.72 22.75 26.31 24.67 27.39L25.64 26.42C25.85 26.22 26.11 26.08 26.4 26.01C26.69 25.95 26.99 25.98 27.26 26.08C27.95 26.34 28.68 26.52 29.41 26.61C29.78 26.67 30.12 26.85 30.37 27.14C30.61 27.43 30.74 27.79 30.73 28.17Z" fill="#E2001A" fill-opacity="1.000000" fill-rule="nonzero"/>
		<path id="Vector" d="M25.41 19.05C26.15 19.2 26.84 19.56 27.38 20.1C27.92 20.64 28.29 21.33 28.43 22.07M25.41 16C26.96 16.17 28.41 16.86 29.52 17.97C30.62 19.07 31.32 20.51 31.5 22.07" stroke="#E2001A" stroke-opacity="1.000000" stroke-width="2.000000" stroke-linejoin="round"/>
	</g>
</svg>
