<svg width="89.000000" height="85.000000" viewBox="0 0 89 85" fill="none" xmlns="http://www.w3.org/2000/svg" xmlns:xlink="http://www.w3.org/1999/xlink">
	<desc>
			Created with Pixso.
	</desc>
	<defs/>
	<path id="Polygon 1" d="M8.2 20.3C1.19 25.39 -1.75 34.42 0.93 42.66L10.12 70.92C12.79 79.16 20.47 84.74 29.14 84.74L58.85 84.74C67.52 84.74 75.2 79.16 77.87 70.92L87.06 42.66C89.74 34.42 86.8 25.39 79.79 20.3L55.75 2.83C48.74 -2.26 39.25 -2.26 32.24 2.83L8.2 20.3ZM9.37 21.91C3.06 26.5 0.42 34.62 2.83 42.04L12.02 70.3C14.43 77.72 21.34 82.74 29.14 82.74L58.85 82.74C66.65 82.74 73.56 77.72 75.97 70.3L85.16 42.04C87.57 34.62 84.93 26.5 78.62 21.91L54.58 4.45C48.27 -0.14 39.72 -0.14 33.41 4.45L9.37 21.91Z" fill="#E2001A" fill-opacity="1.000000" fill-rule="evenodd"/>
</svg>
