<svg width="29.333313" height="20.000000" viewBox="0 0 29.3333 20" fill="none" xmlns="http://www.w3.org/2000/svg" xmlns:xlink="http://www.w3.org/1999/xlink">
	<desc>
			Created with Pixso.
	</desc>
	<defs/>
	<path id="“" d="M7.21 19.96C5.47 20.12 3.96 19.69 2.69 18.68C1.5 17.59 0.71 16.19 0.31 14.48C0 13 -0.08 11.48 0.07 9.92C0.31 8.29 0.83 6.81 1.62 5.48C2.49 4.08 3.68 2.88 5.19 1.86C6.69 0.85 8.6 0.23 10.9 0L11.73 2.91C10.54 3.23 9.27 3.77 7.92 4.55C6.58 5.33 5.7 6.65 5.31 8.52L7.09 8.17C8.91 8.09 10.46 8.6 11.73 9.69C13.08 10.78 13.75 12.14 13.75 13.77C13.75 15.41 13.12 16.85 11.85 18.1C10.58 19.26 9.03 19.89 7.21 19.96ZM22.91 19.96C21.08 20.12 19.58 19.69 18.39 18.68C17.2 17.59 16.41 16.19 16.01 14.48C15.61 13 15.53 11.48 15.77 9.92C16.01 8.29 16.52 6.81 17.32 5.48C18.19 4.08 19.38 2.88 20.89 1.86C22.39 0.85 24.25 0.23 26.47 0L27.43 2.91C26.24 3.23 24.93 3.77 23.5 4.55C22.15 5.33 21.28 6.65 20.89 8.52C21.2 8.44 21.48 8.4 21.72 8.4C22.03 8.33 22.39 8.25 22.79 8.17C24.61 8.09 26.16 8.6 27.43 9.69C28.69 10.78 29.33 12.14 29.33 13.77C29.33 15.41 28.69 16.85 27.43 18.1C26.24 19.26 24.73 19.89 22.91 19.96Z" fill="#3D8AFF" fill-opacity="1.000000" fill-rule="nonzero"/>
</svg>
