<svg width="80.000000" height="80.000000" viewBox="0 0 80 80" fill="none" xmlns="http://www.w3.org/2000/svg" xmlns:xlink="http://www.w3.org/1999/xlink">
	<desc>
			Created with Pixso.
	</desc>
	<defs>
		<clipPath id="clip1_562">
			<rect id="adv2" width="80.000000" height="80.000000" fill="white" fill-opacity="0"/>
		</clipPath>
	</defs>
	<rect id="adv2" width="80.000000" height="80.000000" fill="#FFFFFF" fill-opacity="0"/>
	<g clip-path="url(#clip1_562)">
		<path id="Vector" d="M69.6 39.5L52.9 39.5C51.3 39.5 50 40.8 50 42.39L50 75.6C50 77.19 51.3 78.5 52.9 78.5L69.69 78.5C71.3 78.5 72.6 77.19 72.6 75.6L72.6 42.39C72.5 40.8 71.19 39.5 69.6 39.5Z" fill="#3D8AFF" fill-opacity="1.000000" fill-rule="nonzero"/>
		<path id="Vector" d="M50 46.2L72.5 46.2L72.5 68.69L50 68.69L50 46.2Z" fill="#3D8AFF" fill-opacity="1.000000" fill-rule="evenodd"/>
		<path id="Vector" d="M69.6 37.89L52.9 37.89C50.4 37.89 48.5 39.89 48.5 42.29L48.5 46.2L48.5 68.69L48.5 75.5C48.5 78 50.5 79.89 52.9 79.89L69.69 79.89C72.19 79.89 74.1 77.89 74.1 75.5L74.1 68.69L74.1 46.2L74.1 42.29C74.1 39.89 72.1 37.89 69.6 37.89ZM52.9 41.09L69.69 41.09C70.4 41.09 71 41.7 71 42.39L71 44.7L51.6 44.7L51.6 42.39C51.6 41.59 52.1 41.09 52.9 41.09ZM70.9 67.19L51.6 67.19L51.6 47.79L71 47.79L71 67.19L70.9 67.19ZM69.6 76.79L52.9 76.79C52.2 76.79 51.6 76.19 51.6 75.5L51.6 70.29L71 70.29L71 75.5C70.9 76.29 70.4 76.79 69.6 76.79Z" fill="#005AAA" fill-opacity="1.000000" fill-rule="nonzero"/>
		<path id="Vector" d="M61.6 72L60.4 72C59.5 72 58.8 72.69 58.8 73.6C58.8 74.5 59.5 75.19 60.4 75.19L61.6 75.19C62.5 75.19 63.2 74.5 63.2 73.6C63.2 72.69 62.5 72 61.6 72Z" fill="#005AAA" fill-opacity="1.000000" fill-rule="nonzero"/>
		<path id="Vector" d="M38.9 73.29C24.2 73.29 11.8 62.79 9.5 48.29C9.4 47.39 8.5 46.89 7.7 47C6.79 47.09 6.29 48 6.4 48.79C7.7 56.39 11.6 63.39 17.5 68.5C23.5 73.59 31.1 76.39 39 76.39C39.9 76.39 40.59 75.69 40.59 74.79C40.59 73.89 39.8 73.29 38.9 73.29Z" fill="#005AAA" fill-opacity="1.000000" fill-rule="nonzero"/>
		<path id="Vector" d="M36.2 9.2C50.9 9.2 63.3 19.7 65.6 34.2C65.69 35.1 66.6 35.6 67.4 35.5C68.3 35.4 68.8 34.5 68.69 33.7C67.5 26 63.6 19.1 57.7 14C51.7 8.9 44.1 6.1 36.2 6.1C35.3 6.1 34.59 6.8 34.59 7.7C34.59 8.6 35.3 9.2 36.2 9.2Z" fill="#005AAA" fill-opacity="1.000000" fill-rule="nonzero"/>
		<path id="Vector" d="M27.5 1.6L10.7 1.6C9.09 1.6 7.79 2.9 7.79 4.5L7.79 37.7C7.79 39.3 9.09 40.6 10.7 40.6L27.5 40.6C29.1 40.6 30.4 39.3 30.4 37.7L30.4 4.4C30.3 2.9 29 1.6 27.5 1.6Z" fill="#3D8AFF" fill-opacity="1.000000" fill-rule="nonzero"/>
		<path id="Vector" d="M7.79 8.3L30.3 8.3L30.3 30.8L7.79 30.8L7.79 8.3Z" fill="#FFD66B" fill-opacity="1.000000" fill-rule="evenodd"/>
		<path id="Vector" d="M27.1 0L10.4 0C7.9 0 5.9 2 5.9 4.39L5.9 8.3L5.9 30.8L5.9 37.6C5.9 40.1 7.9 42 10.3 42L27.1 42C29.6 42 31.5 40 31.5 37.6L31.5 30.8L31.5 8.3L31.5 4.39C31.6 2 29.6 0 27.1 0ZM10.4 3.19L27.2 3.19C27.9 3.19 28.5 3.8 28.5 4.5L28.5 6.8L9.1 6.8L9.1 4.39C9.1 3.69 9.6 3.19 10.4 3.19ZM28.4 29.2L9.1 29.2L9.1 9.89L28.5 9.89L28.4 29.2ZM27.1 38.89L10.4 38.89C9.7 38.89 9.1 38.3 9.1 37.6L9.1 32.39L28.5 32.39L28.5 37.6C28.4 38.39 27.9 38.89 27.1 38.89Z" fill="#005AAA" fill-opacity="1.000000" fill-rule="nonzero"/>
		<path id="Vector" d="M19.9 34L18.7 34C17.79 34 17.1 34.7 17.1 35.6C17.1 36.5 17.79 37.2 18.7 37.2L19.9 37.2C20.8 37.2 21.5 36.5 21.5 35.6C21.5 34.7 20.8 34 19.9 34Z" fill="#FFD66B" fill-opacity="1.000000" fill-rule="nonzero"/>
	</g>
</svg>
