<svg width="80.000000" height="80.000000" viewBox="0 0 80 80" fill="none" xmlns="http://www.w3.org/2000/svg" xmlns:xlink="http://www.w3.org/1999/xlink">
	<desc>
			Created with Pixso.
	</desc>
	<defs>
		<clipPath id="clip1_485">
			<rect id="secure.@ui8_bot" width="80.000000" height="80.000000" transform="translate(0.000000 -0.707520)" fill="white" fill-opacity="0"/>
		</clipPath>
	</defs>
	<rect id="secure.@ui8_bot" width="80.000000" height="80.000000" transform="translate(0.000000 -0.707520)" fill="#FFFFFF" fill-opacity="0"/>
	<g clip-path="url(#clip1_485)">
		<path id="Vector" d="M40 71.29C32.23 70.19 25.12 66.32 19.97 60.39C14.83 54.47 12 46.89 12 39.04L12 27.93C11.99 26.52 12.36 25.14 13.06 23.92C13.77 22.7 14.78 21.69 16 20.98L36 9.56C37.2 8.87 38.57 8.51 39.96 8.51C41.35 8.51 42.72 8.87 43.93 9.56L64 20.98C65.21 21.69 66.22 22.7 66.93 23.92C67.63 25.14 68 26.52 68 27.93L68 39.03C68 46.88 65.17 54.46 60.02 60.39C54.88 66.32 47.77 70.19 40 71.29Z" fill="#005AAA" fill-opacity="1.000000" fill-rule="nonzero"/>
		<path id="Vector" d="M37.8 8.82C37.18 8.99 36.58 9.24 36.03 9.56L16 20.98C14.78 21.69 13.77 22.7 13.06 23.92C12.36 25.14 11.99 26.52 12 27.93L12 39.04C12 39.13 12 39.21 12 39.3C16.08 42.35 21.17 43.73 26.23 43.15C31.3 42.58 35.95 40.09 39.24 36.2C42.54 32.31 44.22 27.31 43.95 22.22C43.68 17.13 41.47 12.34 37.79 8.82L37.8 8.82Z" fill="#FFD66B" fill-opacity="1.000000" fill-rule="nonzero"/>
		<path id="Vector" d="M40 62.27C34.46 61.48 29.38 58.73 25.71 54.51C22.04 50.29 20.01 44.88 20 39.29L20 29.93C20 29.34 20.15 28.76 20.45 28.26C20.74 27.75 21.17 27.33 21.68 27.04L38.34 17.51C38.84 17.22 39.41 17.07 40 17.07C40.58 17.07 41.15 17.22 41.65 17.51L58.32 27.04C58.82 27.33 59.25 27.75 59.54 28.26C59.84 28.76 59.99 29.34 60 29.93L60 39.24C59.99 44.84 57.97 50.26 54.3 54.49C50.62 58.72 45.54 61.49 40 62.27Z" fill="#3D8AFF" fill-opacity="1.000000" fill-rule="nonzero"/>
		<path id="Vector" d="M32 39.29L37.33 44.89L48 33.69" stroke="#FFFFFF" stroke-opacity="1.000000" stroke-width="5.000000" stroke-linejoin="round" stroke-linecap="round"/>
		<path id="Vector" d="M60 55.29C59.13 55.29 58.3 55.57 57.61 56.09C56.92 56.61 56.42 57.34 56.17 58.16C55.93 58.99 55.96 59.88 56.26 60.68C56.57 61.49 57.12 62.18 57.84 62.65C59.76 60.82 61.46 58.77 62.88 56.54C62.51 56.14 62.06 55.83 61.57 55.62C61.07 55.4 60.54 55.29 60 55.29Z" fill="#FFD66B" fill-opacity="1.000000" fill-rule="nonzero"/>
	</g>
</svg>
