<svg width="190.000000" height="30.000000" viewBox="0 0 190 30" fill="none" xmlns="http://www.w3.org/2000/svg" xmlns:xlink="http://www.w3.org/1999/xlink">
	<desc>
			Created with Pixso.
	</desc>
	<defs/>
	<rect id="Star_full" width="30.010714" height="28.623524" fill="#FFFFFF" fill-opacity="0"/>
	<path id="Star_ful" d="M29.96 10.84C29.83 10.41 29.4 10.07 28.93 10.07L19.24 9.85L16.03 0.72C15.9 0.29 15.47 0 15 0C14.53 0 14.1 0.29 13.97 0.72L10.76 9.85L1.07 10.07C0.6 10.07 0.17 10.37 0.04 10.84C-0.09 11.27 0.04 11.78 0.43 12.08L8.14 17.95L5.36 27.21C5.23 27.68 5.4 28.15 5.79 28.41C6.17 28.67 6.69 28.71 7.07 28.41L15 22.92L22.97 28.41C23.36 28.67 23.87 28.67 24.26 28.41C24.64 28.15 24.81 27.64 24.69 27.21L21.86 17.95L29.57 12.08C29.96 11.78 30.09 11.31 29.96 10.84Z" fill="#FFD66B" fill-opacity="1.000000" fill-rule="nonzero"/>
	<rect id="Star_full" width="30.010714" height="28.623524" transform="translate(40.005371 0.000000)" fill="#FFFFFF" fill-opacity="0"/>
	<path id="Star_ful" d="M69.96 10.84C69.83 10.41 69.41 10.07 68.93 10.07L59.25 9.85L56.03 0.72C55.91 0.29 55.48 0 55.01 0C54.53 0 54.11 0.29 53.98 0.72L50.76 9.85L41.08 10.07C40.61 10.07 40.18 10.37 40.05 10.84C39.92 11.27 40.05 11.78 40.43 12.08L48.15 17.95L45.36 27.21C45.23 27.68 45.41 28.15 45.79 28.41C46.18 28.67 46.69 28.71 47.08 28.41L55.01 22.92L62.98 28.41C63.36 28.67 63.88 28.67 64.26 28.41C64.65 28.15 64.82 27.64 64.69 27.21L61.86 17.95L69.58 12.08C69.96 11.78 70.09 11.31 69.96 10.84Z" fill="#FFD66B" fill-opacity="1.000000" fill-rule="nonzero"/>
	<rect id="Star_full" width="30.010714" height="28.623524" transform="translate(80.005371 0.000000)" fill="#FFFFFF" fill-opacity="0"/>
	<path id="Star_ful" d="M109.96 10.84C109.83 10.41 109.41 10.07 108.93 10.07L99.25 9.85L96.03 0.72C95.91 0.29 95.48 0 95.01 0C94.53 0 94.11 0.29 93.98 0.72L90.76 9.85L81.08 10.07C80.61 10.07 80.18 10.37 80.05 10.84C79.92 11.27 80.05 11.78 80.43 12.08L88.15 17.95L85.36 27.21C85.23 27.68 85.41 28.15 85.79 28.41C86.18 28.67 86.69 28.71 87.08 28.41L95.01 22.92L102.98 28.41C103.36 28.67 103.88 28.67 104.26 28.41C104.65 28.15 104.82 27.64 104.69 27.21L101.86 17.95L109.58 12.08C109.96 11.78 110.09 11.31 109.96 10.84Z" fill="#FFD66B" fill-opacity="1.000000" fill-rule="nonzero"/>
	<rect id="Star_full" width="30.010714" height="28.623524" transform="translate(120.005371 0.000000)" fill="#FFFFFF" fill-opacity="0"/>
	<path id="Star_ful" d="M149.96 10.84C149.83 10.41 149.41 10.07 148.93 10.07L139.25 9.85L136.03 0.72C135.91 0.29 135.48 0 135.01 0C134.53 0 134.11 0.29 133.98 0.72L130.76 9.85L121.08 10.07C120.61 10.07 120.18 10.37 120.05 10.84C119.92 11.27 120.05 11.78 120.43 12.08L128.15 17.95L125.36 27.21C125.23 27.68 125.41 28.15 125.79 28.41C126.18 28.67 126.69 28.71 127.08 28.41L135.01 22.92L142.98 28.41C143.36 28.67 143.88 28.67 144.26 28.41C144.65 28.15 144.82 27.64 144.69 27.21L141.86 17.95L149.58 12.08C149.96 11.78 150.09 11.31 149.96 10.84Z" fill="#FFD66B" fill-opacity="1.000000" fill-rule="nonzero"/>
	<path id="Star_half" d="M189.95 11.46C189.82 11.02 189.39 10.67 188.92 10.67L179.28 10.45L176.02 1.08C175.85 0.64 175.47 0.33 175 0.33L175 0.29C174.74 0.29 174.48 0.42 174.31 0.6C174.14 0.73 174.01 0.9 173.97 1.08L170.75 10.4L161.11 10.62C160.86 10.62 160.6 10.75 160.39 10.93C160.22 11.06 160.13 11.24 160.04 11.46C159.92 11.9 160.04 12.43 160.43 12.73L168.14 18.76L165.36 28.26C165.23 28.74 165.4 29.22 165.78 29.49C166 29.62 166.21 29.71 166.43 29.71C166.64 29.71 166.86 29.62 167.07 29.49L175 23.86L182.96 29.49C183.14 29.62 183.39 29.71 183.61 29.71C183.82 29.71 184.08 29.62 184.25 29.49C184.63 29.22 184.81 28.7 184.68 28.26L181.85 18.76L189.56 12.73C189.95 12.43 190.08 11.94 189.95 11.46ZM180.99 17.57L180.18 18.19L180.48 19.15L182.96 27.69L175.81 22.63L175 22.06L175 2.53L177.87 10.97L178.21 11.94L179.19 11.99L187.89 12.16L180.99 17.57Z" fill="#FFD66B" fill-opacity="1.000000" fill-rule="nonzero"/>
</svg>
