<svg width="35.000000" height="35.000000" viewBox="0 0 35 35" fill="none" xmlns="http://www.w3.org/2000/svg" xmlns:xlink="http://www.w3.org/1999/xlink">
	<desc>
			Created with Pixso.
	</desc>
	<defs/>
	<path id="bg" d="M35 16.79C35 26.45 27.16 34.29 17.5 34.29C7.83 34.29 0 26.45 0 16.79C0 7.12 7.83 -0.71 17.5 -0.71C27.16 -0.71 35 7.12 35 16.79Z" fill="#005AAA" fill-opacity="1.000000" fill-rule="evenodd"/>
	<path id="tikt" d="M23.66 10.91C22.54 10.35 21.7 9.09 21.56 7.69C21.56 7.41 21.42 7.13 21.42 6.85L18.06 6.85L18.06 14.69L18.06 20.29C18.06 21.83 16.79 23.09 15.25 23.09C14.7 23.09 14.28 22.95 13.86 22.81C13.02 22.39 12.31 21.41 12.31 20.29C12.31 18.75 13.58 17.49 15.25 17.49C15.54 17.49 15.81 17.49 16.1 17.63L16.1 14.97L16.1 14.27C15.81 14.27 15.54 14.13 15.25 14.13C11.9 14.13 9.09 16.93 9.09 20.29C9.09 22.39 10.22 24.21 11.75 25.33C12.74 26.03 14 26.45 15.25 26.45C18.62 26.45 21.42 23.65 21.42 20.29L21.42 13.29C22.68 14.41 24.36 14.97 26.04 14.83L26.04 12.31L26.04 11.47C25.2 11.75 24.36 11.47 23.66 10.91Z" fill="#FFD66B" fill-opacity="1.000000" fill-rule="evenodd"/>
</svg>
