<svg width="80.000000" height="80.000000" viewBox="0 0 80 80" fill="none" xmlns="http://www.w3.org/2000/svg" xmlns:xlink="http://www.w3.org/1999/xlink">
	<desc>
			Created with Pixso.
	</desc>
	<defs>
		<clipPath id="clip1_542">
			<rect id="shipping.@ui8_bot" width="80.000000" height="80.000000" fill="white" fill-opacity="0"/>
		</clipPath>
	</defs>
	<rect id="shipping.@ui8_bot" width="80.000000" height="80.000000" fill="#FFFFFF" fill-opacity="0"/>
	<g clip-path="url(#clip1_542)">
		<path id="Vector" d="M12 12L44 12C46.12 12 48.15 12.84 49.65 14.34C51.15 15.84 52 17.87 52 20L52 60L12 60C9.87 60 7.84 59.15 6.34 57.65C4.84 56.15 4 54.12 4 52L4 20C4 17.87 4.84 15.84 6.34 14.34C7.84 12.84 9.87 12 12 12Z" fill="#3D8AFF" fill-opacity="1.000000" fill-rule="nonzero"/>
		<path id="Vector" d="M52 28L63.05 28C64.54 28 65.99 28.41 67.26 29.19C68.52 29.97 69.54 31.09 70.2 32.42L75.15 42.31C75.71 43.42 76 44.64 76 45.88L76 52C76 54.12 75.15 56.15 73.65 57.65C72.15 59.15 70.12 60 68 60L52 60L52 28Z" fill="#005AAA" fill-opacity="1.000000" fill-rule="nonzero"/>
		<path id="Vector" d="M52 44L67.4 44C67.68 43.99 67.94 43.93 68.18 43.79C68.42 43.66 68.62 43.47 68.76 43.24C68.91 43.01 68.99 42.74 69 42.47C69.01 42.2 68.96 41.93 68.83 41.68L65.1 34.2C64.77 33.54 64.26 32.98 63.62 32.59C62.99 32.2 62.27 32 61.52 32L52 32L52 44Z" fill="#FFFFFF" fill-opacity="1.000000" fill-rule="nonzero"/>
		<path id="Vector" d="M33.68 26.84L28.71 24.36C28.49 24.25 28.24 24.19 28 24.19C27.75 24.19 27.5 24.25 27.28 24.36L22.31 26.84C22.06 26.96 21.79 27.01 21.52 27C21.25 26.99 20.98 26.91 20.75 26.76C20.52 26.62 20.33 26.42 20.2 26.18C20.06 25.94 20 25.68 20 25.4L20 12L36 12L36 25.4C35.99 25.68 35.93 25.94 35.79 26.18C35.66 26.42 35.47 26.62 35.24 26.76C35.01 26.91 34.74 26.99 34.47 27C34.2 27.01 33.93 26.96 33.68 26.84Z" fill="#FFD66B" fill-opacity="1.000000" fill-rule="nonzero"/>
		<path id="Vector" d="M72 60C72 64.41 68.41 68 64 68C59.58 68 56 64.41 56 60C56 55.58 59.58 52 64 52C68.41 52 72 55.58 72 60Z" fill="#FFD66B" fill-opacity="1.000000" fill-rule="evenodd"/>
		<path id="Vector" d="M66 60C66 61.1 65.1 62 64 62C62.89 62 62 61.1 62 60C62 58.89 62.89 58 64 58C65.1 58 66 58.89 66 60Z" fill="#FFFFFF" fill-opacity="1.000000" fill-rule="evenodd"/>
		<path id="Vector" d="M35.69 60C35.69 64.41 32.11 68 27.69 68C23.27 68 19.69 64.41 19.69 60C19.69 55.58 23.27 52 27.69 52C32.11 52 35.69 55.58 35.69 60Z" fill="#FFD66B" fill-opacity="1.000000" fill-rule="evenodd"/>
		<path id="Vector" d="M29.69 60C29.69 61.1 28.8 62 27.69 62C26.59 62 25.69 61.1 25.69 60C25.69 58.89 26.59 58 27.69 58C28.8 58 29.69 58.89 29.69 60Z" fill="#FFFFFF" fill-opacity="1.000000" fill-rule="evenodd"/>
	</g>
</svg>
