<svg width="98.000000" height="62.000000" viewBox="0 0 98 62" fill="none" xmlns="http://www.w3.org/2000/svg" xmlns:xlink="http://www.w3.org/1999/xlink">
	<desc>
			Created with Pixso.
	</desc>
	<defs/>
	<path id="Vector" d="M97.79 60.4C97.72 59.91 97.31 59.54 96.81 59.53C95.01 59.5 90.65 58.92 86.25 54.52C80.02 48.3 77.09 47.2 73.24 47.2C69 47.2 64.38 49.49 60.23 53.64C56.02 57.85 52.78 59.48 48.66 59.48C44.45 59.48 40.16 55.82 37.97 53.64C35.74 51.41 30.15 47.2 24.96 47.2C20.49 47.2 16.16 50.47 12.68 53.09L12.06 53.55C11.4 54.05 10.76 54.58 10.14 55.09C7.6 57.21 5.19 59.22 0.47 59.46C-0.07 59.49 -0.5 59.94 -0.5 60.48C-0.5 61.06 0 61.53 0.58 61.5C5.98 61.21 8.88 58.8 11.45 56.65C12.07 56.13 12.66 55.64 13.28 55.18L13.9 54.71C17.14 52.27 21.16 49.24 24.95 49.24C28.67 49.24 33.68 52.25 36.52 55.08C38.93 57.48 43.7 61.52 48.65 61.52C53.32 61.52 57.09 59.65 61.66 55.08C65.43 51.31 69.54 49.24 73.23 49.24C76.15 49.24 78.54 49.71 84.8 55.96C89.68 60.85 94.59 61.54 96.78 61.57C97.4 61.58 97.89 61.03 97.79 60.4Z" fill="#FFD66B" fill-opacity="1.000000" fill-rule="nonzero"/>
	<path id="Vector" d="M97.79 36.58C97.72 36.09 97.31 35.71 96.81 35.7C95.01 35.67 90.65 35.09 86.25 30.69C80.02 24.47 77.09 23.38 73.24 23.38C69 23.38 64.38 25.66 60.23 29.82C56.02 34.02 52.78 35.66 48.66 35.66C44.45 35.66 40.16 32 37.97 29.82C35.74 27.59 30.15 23.38 24.96 23.38C20.49 23.38 16.16 26.64 12.68 29.26L12.06 29.72C11.4 30.22 10.76 30.75 10.14 31.27C7.6 33.39 5.19 35.4 0.47 35.64C-0.07 35.67 -0.5 36.12 -0.5 36.65C-0.5 37.24 0 37.7 0.58 37.67C5.98 37.39 8.88 34.97 11.45 32.83C12.07 32.31 12.66 31.82 13.28 31.35L13.9 30.88C17.14 28.44 21.16 25.41 24.95 25.41C28.67 25.41 33.68 28.42 36.52 31.25C38.93 33.65 43.7 37.69 48.65 37.69C53.32 37.69 57.09 35.83 61.66 31.25C65.43 27.48 69.54 25.41 73.23 25.41C76.15 25.41 78.54 25.88 84.8 32.13C89.68 37.02 94.59 37.71 96.78 37.74C97.4 37.76 97.89 37.2 97.79 36.58Z" fill="#FFD66B" fill-opacity="1.000000" fill-rule="nonzero"/>
	<path id="Vector" d="M0.58 13.85C5.98 13.57 8.88 11.15 11.45 9.01C12.07 8.49 12.66 8 13.28 7.53L13.9 7.06C17.14 4.62 21.16 1.59 24.95 1.59C28.67 1.59 33.68 4.6 36.52 7.43C38.93 9.84 43.7 13.87 48.65 13.87C53.32 13.87 57.09 12.01 61.66 7.43C65.43 3.66 69.54 1.59 73.23 1.59C76.15 1.59 78.54 2.06 84.8 8.32C89.68 13.2 94.59 13.89 96.78 13.92C97.4 13.93 97.88 13.37 97.79 12.76C97.72 12.27 97.31 11.89 96.81 11.88C95.01 11.85 90.65 11.28 86.24 6.88C80.02 0.65 77.09 -0.44 73.24 -0.44C69 -0.44 64.38 1.85 60.23 6C56.02 10.2 52.78 11.84 48.66 11.84C44.45 11.84 40.16 8.18 37.97 6C35.74 3.77 30.15 -0.44 24.96 -0.44C20.49 -0.44 16.16 2.82 12.68 5.44L12.06 5.91C11.4 6.41 10.76 6.93 10.14 7.45C7.6 9.57 5.19 11.58 0.47 11.82C-0.07 11.85 -0.5 12.3 -0.5 12.83C-0.5 13.42 0 13.88 0.58 13.85Z" fill="#FFD66B" fill-opacity="1.000000" fill-rule="nonzero"/>
</svg>
