<svg width="98.299683" height="62.011230" viewBox="0 0 98.2997 62.0112" fill="none" xmlns="http://www.w3.org/2000/svg" xmlns:xlink="http://www.w3.org/1999/xlink">
	<desc>
			Created with Pixso.
	</desc>
	<defs/>
	<path id="Vector" d="M98.28 60.84C98.21 60.35 97.8 59.97 97.3 59.97C95.5 59.94 91.14 59.36 86.74 54.96C80.51 48.73 77.58 47.64 73.73 47.64C69.49 47.64 64.88 49.93 60.72 54.08C56.52 58.29 53.27 59.92 49.15 59.92C44.94 59.92 40.65 56.26 38.46 54.08C36.23 51.85 30.64 47.64 25.45 47.64C20.98 47.64 16.65 50.9 13.17 53.52L12.55 53.99C11.89 54.49 11.25 55.01 10.64 55.53C8.1 57.65 5.68 59.66 0.96 59.9C0.42 59.93 0 60.38 0 60.91C0 61.5 0.49 61.96 1.07 61.93C6.47 61.65 9.37 59.23 11.94 57.09C12.56 56.57 13.15 56.08 13.77 55.62L14.39 55.14C17.63 52.71 21.65 49.67 25.45 49.67C29.16 49.67 34.18 52.68 37.01 55.51C39.42 57.92 44.2 61.96 49.15 61.96C53.81 61.96 57.58 60.09 62.15 55.51C65.93 51.74 70.03 49.67 73.72 49.67C76.65 49.67 79.04 50.14 85.29 56.4C90.18 61.29 95.08 61.98 97.27 62.01C97.89 62.02 98.38 61.46 98.28 60.84Z" fill="#005AAA" fill-opacity="1.000000" fill-rule="nonzero"/>
	<path id="Vector" d="M98.28 37.01C98.21 36.52 97.8 36.15 97.3 36.14C95.5 36.11 91.14 35.53 86.74 31.13C80.51 24.91 77.58 23.81 73.73 23.81C69.49 23.81 64.88 26.1 60.72 30.25C56.52 34.46 53.27 36.1 49.15 36.1C44.94 36.1 40.65 32.43 38.46 30.25C36.23 28.03 30.64 23.81 25.45 23.81C20.98 23.81 16.65 27.08 13.17 29.7L12.55 30.16C11.89 30.66 11.25 31.19 10.64 31.7C8.1 33.82 5.68 35.83 0.96 36.07C0.42 36.1 0 36.55 0 37.09C0 37.67 0.49 38.14 1.07 38.11C6.47 37.83 9.37 35.41 11.94 33.27C12.56 32.74 13.15 32.25 13.77 31.79L14.39 31.32C17.63 28.88 21.65 25.85 25.45 25.85C29.16 25.85 34.18 28.86 37.01 31.69C39.42 34.09 44.2 38.13 49.15 38.13C53.81 38.13 57.58 36.26 62.15 31.69C65.93 27.92 70.03 25.85 73.72 25.85C76.65 25.85 79.04 26.32 85.29 32.57C90.18 37.46 95.08 38.14 97.27 38.18C97.89 38.19 98.38 37.64 98.28 37.01Z" fill="#005AAA" fill-opacity="1.000000" fill-rule="nonzero"/>
	<path id="Vector" d="M1.07 14.29C6.47 14.01 9.37 11.59 11.94 9.45C12.56 8.93 13.15 8.43 13.77 7.97L14.39 7.5C17.63 5.06 21.65 2.03 25.45 2.03C29.16 2.03 34.18 5.04 37.01 7.87C39.42 10.27 44.19 14.31 49.15 14.31C53.81 14.31 57.58 12.44 62.15 7.87C65.93 4.1 70.03 2.03 73.72 2.03C76.65 2.03 79.03 2.5 85.29 8.75C90.18 13.64 95.08 14.33 97.27 14.36C97.89 14.37 98.38 13.81 98.28 13.2C98.21 12.7 97.8 12.33 97.3 12.32C95.5 12.29 91.14 11.71 86.74 7.31C80.51 1.09 77.58 0 73.73 0C69.49 0 64.88 2.28 60.72 6.44C56.51 10.64 53.27 12.28 49.15 12.28C44.94 12.28 40.65 8.61 38.46 6.44C36.23 4.21 30.64 0 25.45 0C20.98 0 16.65 3.26 13.17 5.88L12.55 6.34C11.89 6.84 11.25 7.37 10.64 7.88C8.1 10 5.68 12.02 0.96 12.26C0.42 12.28 0 12.73 0 13.27C0 13.85 0.49 14.32 1.07 14.29Z" fill="#005AAA" fill-opacity="1.000000" fill-rule="nonzero"/>
</svg>
