<svg width="96.000000" height="14.000000" viewBox="0 0 96 14" fill="none" xmlns="http://www.w3.org/2000/svg" xmlns:xlink="http://www.w3.org/1999/xlink">
	<desc>
			Created with Pixso.
	</desc>
	<defs/>
	<path id="Vector" d="M10.34 5.01L1.61 -0.55C0.91 -0.99 0 -0.49 0 0.34L0 12.24C0 13.1 0.96 13.59 1.65 13.09L10.39 6.74C10.99 6.3 10.96 5.41 10.34 5.01Z" fill="#FFD66B" fill-opacity="1.000000" fill-rule="nonzero"/>
	<path id="Vector" d="M31.49 5.01L22.76 -0.55C22.06 -0.99 21.15 -0.49 21.15 0.34L21.15 12.24C21.15 13.1 22.12 13.59 22.81 13.09L31.54 6.74C32.14 6.3 32.11 5.41 31.49 5.01Z" fill="#FFD66B" fill-opacity="1.000000" fill-rule="nonzero"/>
	<path id="Vector" d="M52.64 5.01L43.91 -0.55C43.21 -0.99 42.3 -0.49 42.3 0.34L42.3 12.24C42.3 13.1 43.27 13.59 43.96 13.09L52.69 6.74C53.29 6.3 53.26 5.41 52.64 5.01Z" fill="#FFD66B" fill-opacity="1.000000" fill-rule="nonzero"/>
	<path id="Vector" d="M73.79 5.01L65.06 -0.55C64.36 -0.99 63.45 -0.49 63.45 0.34L63.45 12.24C63.45 13.1 64.42 13.59 65.11 13.09L73.84 6.74C74.44 6.3 74.41 5.41 73.79 5.01Z" fill="#FFD66B" fill-opacity="1.000000" fill-rule="nonzero"/>
	<path id="Vector" d="M94.94 5.01L86.21 -0.55C85.51 -0.99 84.6 -0.49 84.6 0.34L84.6 12.24C84.6 13.1 85.57 13.59 86.26 13.09L94.99 6.74C95.59 6.3 95.56 5.41 94.94 5.01Z" fill="#FFD66B" fill-opacity="1.000000" fill-rule="nonzero"/>
</svg>
