<svg width="35.000000" height="35.000000" viewBox="0 0 35 35" fill="none" xmlns="http://www.w3.org/2000/svg" xmlns:xlink="http://www.w3.org/1999/xlink">
	<desc>
			Created with Pixso.
	</desc>
	<defs/>
	<path id="bg" d="M35 16.79C35 26.45 27.16 34.29 17.5 34.29C7.83 34.29 0 26.45 0 16.79C0 7.12 7.83 -0.71 17.5 -0.71C27.16 -0.71 35 7.12 35 16.79Z" fill="#005AAA" fill-opacity="1.000000" fill-rule="evenodd"/>
	<path id="XMLID_149_" d="M11.48 9.93C13.44 9.79 15.68 9.65 17.5 9.65C19.32 9.65 21.56 9.79 23.52 9.93C25.76 10.07 27.02 10.49 27.3 12.87C27.44 13.99 27.58 15.39 27.58 16.79C27.58 18.33 27.44 19.73 27.3 20.71C27.02 23.09 25.76 23.37 23.52 23.65C21.56 23.79 19.32 23.93 17.5 23.93C15.68 23.93 13.44 23.93 11.48 23.65C9.23 23.51 7.97 23.09 7.7 20.71C7.56 19.73 7.56 18.19 7.56 16.79C7.56 15.25 7.7 13.85 7.7 12.87C7.97 10.49 9.23 10.07 11.48 9.93Z" fill="#FFD66B" fill-opacity="1.000000" fill-rule="evenodd"/>
	<path id="XMLID_143_" d="M15.54 13.71L20.72 16.79L15.54 19.87L15.54 13.71Z" fill="#005AAA" fill-opacity="1.000000" fill-rule="evenodd"/>
</svg>
